<svg width="84" height="25" viewBox="0 0 84 25" fill="none" xmlns="http://www.w3.org/2000/svg">
<rect width="84" height="25" rx="3" fill="#F4EEE9"/>
<g clip-path="url(#clip0_142_340)">
<path d="M35.0464 13.9571L38.6883 18.5714H35.8125L32.5714 14.3336V18.5714H30.2142V6.42861H32.5714V13.5686L35.565 10.0714H38.5703L35.0464 13.9571ZM25.6178 9.82861C25.1017 9.83657 24.5952 9.97329 24.1416 10.2271C23.688 10.4808 23.3008 10.8441 23.0133 11.2857V10.0714H20.7858V18.5714H23.1428V14.6007C23.1119 14.3125 23.1388 14.0208 23.222 13.7438C23.3052 13.4668 23.4428 13.2104 23.6263 12.9905C23.8099 12.7707 24.0353 12.5921 24.2887 12.4659C24.5421 12.3398 24.818 12.2687 25.0992 12.2571C26.4664 12.2571 26.6786 13.6414 26.6786 14.6007V18.5714H29.0358V14.0664C29.0358 11.395 28.1753 9.82861 25.665 9.82861H25.6178ZM46.7142 14.5157C46.7233 14.6937 46.7233 14.872 46.7142 15.05H40.5267V15.135C40.6272 15.6414 40.8995 16.0943 41.2947 16.4125C41.69 16.7307 42.1824 16.8934 42.6836 16.8714C43.0812 16.8892 43.4781 16.8242 43.8508 16.6802C44.2234 16.5363 44.564 16.3164 44.8522 16.0336L46.4197 17.2479C45.9229 17.7703 45.3253 18.1795 44.6656 18.4493C44.0058 18.7191 43.2985 18.8434 42.5892 18.8143C42.0019 18.8525 41.4134 18.7605 40.8635 18.5443C40.3136 18.3281 39.8152 17.9929 39.4018 17.5613C38.9884 17.1296 38.6698 16.6116 38.4674 16.0422C38.265 15.4728 38.1836 14.8653 38.2286 14.2607C38.2165 13.6638 38.3239 13.0708 38.544 12.5186C38.7642 11.9664 39.0923 11.4668 39.5081 11.051C39.9238 10.6352 40.4183 10.312 40.9605 10.1017C41.5028 9.89143 42.0813 9.79846 42.66 9.82861C44.8758 9.82861 46.7142 11.4436 46.7142 14.5157ZM44.5222 13.4714C44.5135 13.2309 44.4574 12.9947 44.3573 12.7772C44.2571 12.5598 44.1151 12.3656 43.9398 12.2065C43.7644 12.0475 43.5595 11.9269 43.3375 11.8521C43.1154 11.7773 42.8809 11.7498 42.6483 11.7714C41.6119 11.656 40.6733 12.4081 40.5267 13.4714H44.5222ZM11.3572 6.42861H9V18.5714H16.0714V16.143H11.3572V6.42861ZM53.7858 6.42861H56.1428V18.5714H53.9153V17.7214C53.6325 18.0804 53.272 18.3663 52.8627 18.5561C52.4534 18.7458 52.0067 18.8343 51.5583 18.8143C51.0104 18.7998 50.4713 18.67 49.9739 18.433C49.4766 18.1959 49.0315 17.8565 48.6661 17.4357C48.3008 17.0149 48.0228 16.5216 47.8493 15.986C47.6758 15.4504 47.6104 14.8839 47.6572 14.3214C47.6015 13.758 47.6603 13.1889 47.8298 12.6503C47.9992 12.1116 48.2757 11.6152 48.6415 11.1926C49.0073 10.77 49.4545 10.4305 49.9546 10.1956C50.4548 9.96081 50.9969 9.83582 51.5464 9.82861C51.9557 9.81013 52.3646 9.87577 52.749 10.0217C53.1335 10.1676 53.4859 10.3909 53.7858 10.6786V6.42861ZM53.9625 14.3214C53.9996 14.041 53.9778 13.7557 53.8988 13.4847C53.8197 13.2136 53.6852 12.9633 53.5043 12.7504C53.3233 12.5375 53.1002 12.367 52.8499 12.2505C52.5996 12.134 52.3279 12.0742 52.0533 12.075C50.9257 12.1593 50.0713 13.1584 50.1322 14.3214C50.0713 15.4844 50.9257 16.4836 52.0533 16.5679C52.3279 16.5688 52.5996 16.5089 52.8499 16.3924C53.1002 16.2759 53.3234 16.1054 53.5043 15.8925C53.6853 15.6796 53.8198 15.4292 53.8988 15.1582C53.9779 14.8871 53.9996 14.6018 53.9625 14.3214ZM18.4286 6.1857C18.0495 6.19123 17.6867 6.34474 17.4132 6.61524C17.1398 6.88574 16.9761 7.25306 16.9553 7.64305C16.9553 8.48123 17.6149 9.16083 18.4286 9.16083C19.2422 9.16083 19.9016 8.48109 19.9016 7.64305C19.8808 7.25311 19.7171 6.88584 19.4437 6.61537C19.1703 6.3449 18.8075 6.19139 18.4285 6.18583M17.25 18.5714H19.6072V10.0714H17.25V18.5714ZM75 5.2143V19.7857C75 20.1077 74.8758 20.4166 74.6548 20.6443C74.4338 20.8721 74.134 21 73.8214 21H59.6786C59.366 21 59.0662 20.8721 58.8452 20.6443C58.6242 20.4166 58.5 20.1077 58.5 19.7857V5.2143C58.5 4.89225 58.6242 4.58339 58.8452 4.35566C59.0662 4.12794 59.366 4 59.6786 4H73.8214C74.134 4 74.4338 4.12794 74.6548 4.35566C74.8758 4.58339 75 4.89225 75 5.2143ZM63.2142 10.0714H60.8572V18.5714H63.2142V10.0714ZM63.5089 7.64291C63.5089 6.8046 62.8493 6.125 62.0358 6.125C61.2221 6.125 60.5625 6.8046 60.5625 7.64291C60.5625 8.48109 61.2221 9.1607 62.0358 9.1607C62.8493 9.1607 63.5089 8.48109 63.5089 7.64291ZM72.6428 14.0664C72.6428 11.395 71.7825 9.82861 69.2722 9.82861C68.7481 9.82866 68.232 9.9616 67.7695 10.2157C67.307 10.4698 66.9124 10.8373 66.6203 11.2857V10.0714H64.3928V18.5714H66.75V14.6007C66.719 14.3125 66.746 14.0208 66.8292 13.7438C66.9124 13.4668 67.05 13.2104 67.2335 12.9905C67.417 12.7707 67.6425 12.5921 67.8959 12.4659C68.1493 12.3398 68.4252 12.2687 68.7064 12.2571C70.0736 12.2571 70.2858 13.6414 70.2858 14.6007V18.5714H72.6428V14.0664Z" fill="#2A4172"/>
</g>
<defs>
<clipPath id="clip0_142_340">
<rect x="9" y="4" width="66" height="17" rx="3" fill="white"/>
</clipPath>
</defs>
</svg>
