<svg width="1349" height="196" viewBox="0 0 1349 196" fill="none" xmlns="http://www.w3.org/2000/svg">
<path d="M57.15 195.525C36.8 195.525 19.475 192.042 5.175 185.075C-8.94167 177.925 -19.6667 167.108 -27 152.625C-34.3333 138.142 -38 119.808 -38 97.625C-38 64.9917 -29.8417 40.6083 -13.525 24.475C2.975 8.15834 26.5333 0 57.15 0C74.2 0 89.325 2.93333 102.525 8.8C115.725 14.4833 125.992 23.1 133.325 34.65C140.842 46.0167 144.6 60.225 144.6 77.275H96.475C96.475 69.2084 94.825 62.3333 91.525 56.65C88.4083 50.7833 83.9167 46.2917 78.05 43.175C72.3667 40.0583 65.4 38.5 57.15 38.5C46.8833 38.5 38.45 40.6083 31.85 44.825C25.25 49.0417 20.3917 55.0917 17.275 62.975C14.1583 70.8583 12.6 80.3917 12.6 91.575V103.95C12.6 115.133 14.1583 124.758 17.275 132.825C20.3917 140.708 25.1583 146.758 31.575 150.975C38.175 155.008 46.6083 157.025 56.875 157.025C65.675 157.025 73.1 155.558 79.15 152.625C85.3833 149.692 90.0583 145.383 93.175 139.7C96.475 133.833 98.125 126.867 98.125 118.8H144.6C144.6 135.85 140.933 150.058 133.6 161.425C126.45 172.792 116.275 181.317 103.075 187C90.0583 192.683 74.75 195.525 57.15 195.525Z" fill="#C6D7F5" fill-opacity="0.7"/>
<path d="M281.537 195.525C260.82 195.525 243.037 191.95 228.187 184.8C213.52 177.467 202.245 166.558 194.362 152.075C186.479 137.592 182.537 119.442 182.537 97.625C182.537 75.8083 186.479 57.75 194.362 43.45C202.245 28.9667 213.52 18.15 228.187 11C243.037 3.66667 260.82 0 281.537 0C302.254 0 319.945 3.66667 334.612 11C349.462 18.15 360.829 28.9667 368.712 43.45C376.595 57.75 380.537 75.8083 380.537 97.625C380.537 119.442 376.595 137.592 368.712 152.075C360.829 166.558 349.462 177.467 334.612 184.8C319.945 191.95 302.254 195.525 281.537 195.525ZM281.537 157.025C289.42 157.025 296.387 155.833 302.437 153.45C308.487 151.067 313.529 147.583 317.562 143C321.779 138.417 324.895 132.825 326.912 126.225C328.929 119.625 329.937 112.2 329.937 103.95V91.85C329.937 83.4167 328.929 75.9 326.912 69.3C324.895 62.7 321.779 57.1083 317.562 52.525C313.529 47.9417 308.487 44.4583 302.437 42.075C296.387 39.6917 289.42 38.5 281.537 38.5C273.47 38.5 266.412 39.6917 260.362 42.075C254.312 44.4583 249.27 47.9417 245.237 52.525C241.204 57.1083 238.179 62.7 236.162 69.3C234.145 75.9 233.137 83.4167 233.137 91.85V103.95C233.137 112.2 234.145 119.625 236.162 126.225C238.179 132.825 241.204 138.417 245.237 143C249.27 147.583 254.312 151.067 260.362 153.45C266.412 155.833 273.47 157.025 281.537 157.025Z" fill="#C6D7F5" fill-opacity="0.7"/>
<path d="M427.169 192.225V3.30001H470.894L539.644 91.025C540.927 92.4917 542.577 94.6 544.594 97.35C546.794 100.1 548.902 102.942 550.919 105.875C552.936 108.625 554.402 110.825 555.319 112.475L556.694 112.2C556.694 108.167 556.694 104.317 556.694 100.65C556.694 96.8 556.694 93.5917 556.694 91.025V3.30001H602.344V192.225H558.894L486.019 99.825C483.636 96.8917 481.344 93.8667 479.144 90.75C477.127 87.6333 475.477 85.0667 474.194 83.05L472.819 83.325C472.819 86.2583 472.819 89.2833 472.819 92.4C472.819 95.3334 472.819 97.8083 472.819 99.825V192.225H427.169Z" fill="#C6D7F5" fill-opacity="0.7"/>
<path d="M704.674 192.225V43.725H643.349V3.30001H815.224V43.725H753.899V192.225H704.674Z" fill="#C6D7F5" fill-opacity="0.7"/>
<path d="M815.712 192.225L886.662 3.30001H945.787L1016.74 192.225H964.212L952.937 159.5H877.587L866.312 192.225H815.712ZM889.412 122.65H940.837L927.362 82.775C926.628 80.7583 925.712 78.2833 924.612 75.35C923.695 72.2333 922.687 69.025 921.587 65.725C920.67 62.2417 919.753 58.7583 918.837 55.275C917.92 51.7917 917.003 48.7667 916.087 46.2H914.162C913.428 49.6833 912.328 53.625 910.862 58.025C909.578 62.425 908.203 66.825 906.737 71.225C905.453 75.625 904.262 79.475 903.162 82.775L889.412 122.65Z" fill="#C6D7F5" fill-opacity="0.7"/>
<path d="M1077.8 192.225V43.725H1016.48V3.30001H1188.35V43.725H1127.03V192.225H1077.8Z" fill="#C6D7F5" fill-opacity="0.7"/>
<path d="M1312.79 195.525C1292.07 195.525 1274.29 191.95 1259.44 184.8C1244.77 177.467 1233.5 166.558 1225.61 152.075C1217.73 137.592 1213.79 119.442 1213.79 97.625C1213.79 75.8083 1217.73 57.75 1225.61 43.45C1233.5 28.9667 1244.77 18.15 1259.44 11C1274.29 3.66667 1292.07 0 1312.79 0C1333.5 0 1351.2 3.66667 1365.86 11C1380.71 18.15 1392.08 28.9667 1399.96 43.45C1407.85 57.75 1411.79 75.8083 1411.79 97.625C1411.79 119.442 1407.85 137.592 1399.96 152.075C1392.08 166.558 1380.71 177.467 1365.86 184.8C1351.2 191.95 1333.5 195.525 1312.79 195.525ZM1312.79 157.025C1320.67 157.025 1327.64 155.833 1333.69 153.45C1339.74 151.067 1344.78 147.583 1348.81 143C1353.03 138.417 1356.15 132.825 1358.16 126.225C1360.18 119.625 1361.19 112.2 1361.19 103.95V91.85C1361.19 83.4167 1360.18 75.9 1358.16 69.3C1356.15 62.7 1353.03 57.1083 1348.81 52.525C1344.78 47.9417 1339.74 44.4583 1333.69 42.075C1327.64 39.6917 1320.67 38.5 1312.79 38.5C1304.72 38.5 1297.66 39.6917 1291.61 42.075C1285.56 44.4583 1280.52 47.9417 1276.49 52.525C1272.45 57.1083 1269.43 62.7 1267.41 69.3C1265.4 75.9 1264.39 83.4167 1264.39 91.85V103.95C1264.39 112.2 1265.4 119.625 1267.41 126.225C1269.43 132.825 1272.45 138.417 1276.49 143C1280.52 147.583 1285.56 151.067 1291.61 153.45C1297.66 155.833 1304.72 157.025 1312.79 157.025Z" fill="#C6D7F5" fill-opacity="0.7"/>
</svg>
