<svg width="70" height="90" viewBox="0 0 70 90" fill="none" xmlns="http://www.w3.org/2000/svg">
<g clip-path="url(#clip0_157_14)">
<path d="M60.1239 43.7024C60.8792 43.1405 61.3657 42.2611 61.3657 41.2728C61.3657 39.5804 59.9378 38.2042 58.1819 38.2042H35.9944C36.4369 36.5051 36.6271 34.8128 36.5568 33.1615C36.4823 31.4094 36.1516 30.1912 35.7698 28.7791C35.5561 27.9901 35.3204 27.12 35.1096 26.0519C37.6318 25.3452 43.4219 23.2756 46.8911 18.4946C51.325 12.384 50.141 4.36173 50.0887 4.02299C50.0501 3.77724 49.9095 3.55805 49.6986 3.41591C49.4877 3.27377 49.2259 3.22196 48.9723 3.27111C48.6249 3.34019 40.3994 5.02062 35.9655 11.1313C33.9063 13.9701 33.0587 17.2194 32.7472 19.9213H32.6783C32.6755 20.1512 32.6755 20.3823 32.6783 20.6134C32.6521 20.9176 32.6328 21.2125 32.6177 21.4982C31.1567 19.7712 28.9721 17.7892 26.075 16.7504C20.3937 14.7153 14.3252 17.1596 14.0688 17.2645C13.8318 17.3615 13.6471 17.5488 13.5575 17.7813C13.4679 18.0137 13.4817 18.2715 13.5947 18.4946C13.7174 18.7351 16.6572 24.406 22.3385 26.4411C23.9979 27.0349 25.6904 27.2475 27.2617 27.2475C29.7853 27.2475 31.9933 26.7002 33.2503 26.3096C33.4749 27.468 33.7258 28.3966 33.9532 29.2361C34.3226 30.6004 34.6148 31.6777 34.6809 33.2359C34.7498 34.8553 34.539 36.5251 34.0524 38.2042H11.8167C10.0608 38.2042 8.63291 39.5804 8.63291 41.2728C8.63291 42.2611 9.12082 43.1405 9.87474 43.7024C4.20314 49.2246 1.09375 56.3156 1.09375 63.8132C1.09375 69.2211 2.74354 74.5214 5.86534 79.1403C8.88652 83.6117 13.1964 87.3312 18.3277 89.8977L18.5303 90H51.4697L51.6723 89.8977C56.8036 87.3326 61.1135 83.6117 64.1347 79.1403C67.2565 74.5214 68.9062 69.2211 68.9062 63.8132C68.9062 56.3156 65.7969 49.2246 60.1239 43.7024ZM22.9932 24.7461C19.2801 23.4164 16.824 20.1671 15.8096 18.5889C17.6482 18.0323 21.71 17.1171 25.4217 18.4468C29.1334 19.7765 31.5895 23.0245 32.6052 24.604C30.7666 25.1606 26.7049 26.0745 22.9932 24.7461ZM34.5596 20.8207C34.7774 18.2223 35.4982 14.9345 37.505 12.1688C40.6365 7.85411 46.082 5.93722 48.3327 5.30225C48.4857 7.55788 48.4857 13.1451 45.3543 17.4598C42.3497 21.6018 37.2128 23.5319 34.8146 24.2426C34.6644 23.1069 34.5789 21.9618 34.5596 20.8207ZM11.8167 40.0135H58.1819C58.9027 40.0135 59.4885 40.578 59.4885 41.2728C59.4885 41.9675 58.9027 42.5321 58.1819 42.5321H11.8167C11.0959 42.5321 10.5101 41.9675 10.5101 41.2728C10.5101 40.578 11.0959 40.0135 11.8167 40.0135ZM51.0094 88.1894H18.9893C9.10153 83.1614 2.96958 73.8413 2.96958 63.8132C2.96958 56.5109 6.12997 49.6099 11.876 44.3414H58.1213C63.8687 49.6085 67.0277 56.5096 67.0277 63.8132C67.0277 73.8413 60.8957 83.1614 51.008 88.1894H51.0094Z" fill="#54160A" stroke="#54160A"/>
<path d="M46.8805 47.7122C45.6547 47.7122 44.4617 47.8431 43.3109 48.089C42.55 48.2516 41.8069 48.4658 41.0897 48.7263C41.0297 48.7487 40.9697 48.7699 40.9097 48.7924C40.5143 48.9418 40.1257 49.1044 39.7453 49.2816H12.2994C11.5972 49.2816 10.9632 49.5711 10.516 50.0312C10.1001 50.4583 9.84375 51.0321 9.84375 51.6641V55.6491C9.84375 56.2811 10.1001 56.8549 10.516 57.282C10.1001 57.709 9.84375 58.2828 9.84375 58.9148V62.8998C9.84375 63.5318 10.1001 64.1056 10.516 64.5327C10.1001 64.9598 9.84375 65.5336 9.84375 66.1656V70.1506C9.84375 70.8262 10.1369 71.437 10.6059 71.8707C10.2364 72.2872 10.0115 72.8293 10.0115 73.4203V77.4053C10.0115 78.7195 11.1132 79.7878 12.4685 79.7878H23.2361V80.0271C23.2361 81.3413 24.3378 82.4096 25.6931 82.4096H54.2475C55.6028 82.4096 56.7045 81.3413 56.7045 80.0271V76.6794C60.7855 73.7534 63.4375 69.0532 63.4375 63.7645C63.4375 54.9127 56.0105 47.7108 46.8819 47.7108L46.8805 47.7122ZM11.8863 51.6641C11.8863 51.4433 12.0717 51.2635 12.2994 51.2635H36.507C34.8258 52.5777 33.4132 54.2027 32.3661 56.0497H12.2994C12.0717 56.0497 11.8863 55.8699 11.8863 55.6491V51.6641ZM30.5008 66.1087H25.6904C25.4626 66.1087 25.2772 65.9289 25.2772 65.7081V61.7231C25.2772 61.5023 25.4626 61.3225 25.6904 61.3225H30.5158C30.3903 62.1198 30.3249 62.9355 30.3249 63.7658C30.3249 64.5962 30.3862 65.3432 30.5021 66.1087H30.5008ZM25.6904 68.5732H31.083C31.6475 70.3145 32.5106 71.9289 33.6137 73.3594H25.6904C25.4626 73.3594 25.2772 73.1796 25.2772 72.9588V68.9738C25.2772 68.753 25.4626 68.5732 25.6904 68.5732ZM23.2333 76.0434V77.8072H12.4658C12.2381 77.8072 12.0526 77.6274 12.0526 77.4066V73.4216C12.0526 73.2008 12.2381 73.021 12.4658 73.021H23.2374C23.2524 73.5842 23.4692 74.0999 23.8224 74.5005C23.4569 74.917 23.2347 75.4551 23.2347 76.0421L23.2333 76.0434ZM23.2333 68.9738V70.5525H12.2994C12.0717 70.5525 11.8863 70.3727 11.8863 70.1519V66.1669C11.8863 65.9461 12.0717 65.7663 12.2994 65.7663H23.2374C23.2524 66.3758 23.5047 66.9271 23.9069 67.341C23.491 67.768 23.2347 68.3418 23.2347 68.9738H23.2333ZM23.2333 61.7231V63.3018H12.2994C12.0717 63.3018 11.8863 63.122 11.8863 62.9012V58.9162C11.8863 58.6954 12.0717 58.5155 12.2994 58.5155H31.2343C31.1375 58.7879 31.0462 59.0629 30.9644 59.3406H25.6904C24.335 59.3406 23.2333 60.4089 23.2333 61.7231ZM54.6579 80.0284C54.6579 80.2492 54.4725 80.429 54.2448 80.429H25.6904C25.4626 80.429 25.2772 80.2492 25.2772 80.0284V76.0434C25.2772 75.8226 25.4626 75.6428 25.6904 75.6428H35.753C38.6941 78.2369 42.6005 79.8195 46.8805 79.8195C49.6907 79.8195 52.3386 79.136 54.6593 77.9341V80.0284H54.6579ZM46.8805 77.8376C38.8781 77.8376 32.3688 71.5256 32.3688 63.7658C32.3688 56.0061 38.8781 49.6941 46.8805 49.6941C54.8829 49.6941 61.3923 56.0061 61.3923 63.7658C61.3923 71.5256 54.8829 77.8376 46.8805 77.8376Z" fill="#54160A" stroke="#54160A"/>
<path d="M50.2546 63.5659C49.4911 63.2311 48.5111 62.9142 47.3146 62.614C46.3276 62.3549 45.5262 62.1086 44.9132 61.8764C44.2987 61.6442 43.8502 61.3749 43.5662 61.067C43.2822 60.7591 43.1402 60.3743 43.1402 59.9099C43.1402 59.1864 43.4425 58.6541 44.0485 58.3128C44.6544 57.9716 45.4432 57.801 46.4162 57.801C47.3891 57.801 48.1526 57.9921 48.7502 58.3744C49.3491 58.7567 49.6922 59.2275 49.7822 59.7868C49.8412 59.9368 49.9284 60.0395 50.0409 60.0946C50.1534 60.1498 50.2616 60.1767 50.3671 60.1767H51.5566C51.7211 60.1767 51.8406 60.1331 51.9151 60.0433C51.9896 59.9548 52.0276 59.8624 52.0276 59.7662C52.0121 59.2749 51.8336 58.7695 51.4891 58.2513C51.1446 57.733 50.6356 57.275 49.9621 56.8799C49.2887 56.4836 48.4507 56.2309 47.4482 56.1218V54.6877C47.4482 54.5517 47.399 54.4388 47.302 54.3503C47.205 54.2618 47.0812 54.2169 46.9322 54.2169H46.0787C45.9142 54.2169 45.7863 54.2618 45.6977 54.3503C45.6077 54.4388 45.5627 54.5517 45.5627 54.6877V56.1013C44.0808 56.2244 42.9363 56.6439 42.1293 57.361C41.3208 58.0781 40.9173 58.935 40.9173 59.9317C40.9173 60.7104 41.093 61.3518 41.4445 61.8572C41.796 62.3626 42.3317 62.7859 43.0488 63.1272C43.7673 63.4684 44.6727 63.7827 45.7652 64.0687C46.8127 64.342 47.6647 64.5947 48.3241 64.8269C48.9822 65.059 49.4729 65.322 49.7948 65.6145C50.1168 65.9082 50.2771 66.2944 50.2771 66.7716C50.2771 67.4681 49.9734 68.0249 49.3674 68.4405C48.7614 68.8574 47.8152 69.0652 46.5287 69.0652C45.6907 69.0652 45.006 68.96 44.4745 68.7483C43.943 68.5367 43.5353 68.2711 43.2512 67.9492C42.9672 67.6285 42.7802 67.3039 42.6902 66.9768C42.6607 66.8678 42.6003 66.7716 42.5103 66.6895C42.4203 66.6074 42.2853 66.5663 42.1068 66.5663H40.9623C40.8273 66.5663 40.712 66.6112 40.615 66.6997C40.518 66.7882 40.4688 66.8883 40.4688 66.9973C40.4983 67.5977 40.7078 68.1647 41.0972 68.697C41.4867 69.2294 42.0547 69.6835 42.8027 70.0594C43.5507 70.4352 44.4717 70.6636 45.5641 70.7457V72.1798C45.5641 72.3158 45.6091 72.4287 45.6991 72.5172C45.7891 72.6057 45.9156 72.6506 46.0801 72.6506H46.9336C47.0826 72.6506 47.2064 72.6057 47.3034 72.5172C47.4004 72.4287 47.4496 72.3158 47.4496 72.1798V70.7662C48.4816 70.6841 49.3758 70.4724 50.1323 70.1312C50.8873 69.79 51.4708 69.332 51.8828 68.7586C52.2947 68.1852 52.5 67.5092 52.5 66.7318C52.5 65.9544 52.3172 65.3156 51.9503 64.8166C51.5833 64.3189 51.0181 63.902 50.256 63.5671L50.2546 63.5659Z" fill="#54160A" stroke="#54160A"/>
</g>
<defs>
<clipPath id="clip0_157_14">
<rect width="70" height="90" fill="white"/>
</clipPath>
</defs>
</svg>
