<svg width="209" height="116" viewBox="0 0 209 116" fill="none" xmlns="http://www.w3.org/2000/svg">
<path d="M14.7036 68.6432C14.7036 68.6432 6.61097 51.0625 12.211 34.6692C17.8111 18.276 34.9749 9.28442 34.9749 9.28442C34.9749 9.28442 43.0675 26.8651 37.4675 43.2584C31.8674 59.645 14.7036 68.6432 14.7036 68.6432Z" fill="#2A4172"/>
<path d="M73.957 50.6337C85.0211 50.6337 93.9903 41.6845 93.9903 30.6452C93.9903 19.6058 85.0211 10.6566 73.957 10.6566C62.893 10.6566 53.9238 19.6058 53.9238 30.6452C53.9238 41.6845 62.893 50.6337 73.957 50.6337Z" fill="#2A4172"/>
<path d="M14.7367 90.5382C34.8361 87.7412 59.233 90.1424 79.491 91.4156C88.6085 91.9896 98.1094 90.5712 107.062 88.7571C123.412 85.4389 135.154 70.6025 149.131 61.4988C163.108 52.3951 182.699 51.2934 196.947 59.9551C187.776 63.8539 182.428 73.1753 176.411 81.1047C162.857 98.9757 141.951 112.235 119.491 112.605C101.442 112.902 84.3902 105.164 66.9686 100.447C50.3668 95.9543 31.9005 89.5223 14.7367 90.5382Z" fill="#2A4172"/>
<path d="M14.7367 83.3278C25.2492 71.1302 45.8576 67.9703 60.9586 65.0017C70.043 63.2074 81.5605 62.0529 89.9374 58.5104C102.909 53.3582 112.04 44.2875 122.526 34.6429C131.842 25.8624 143.611 16.7125 156.173 11.5538C169.138 6.04538 183.677 3.71009 197.476 3.38684L196.411 32.6704C189.039 31.8722 181.78 31.7468 174.732 32.5121C149.224 35.0783 134.678 51.8079 113.091 63.9066C106.136 67.7196 98.4796 70.7278 90.6382 72.2583C81.6332 73.7294 70.7504 73.2148 61.7322 73.3863C46.6775 73.769 26.8161 73.3534 14.7367 83.3278Z" fill="#2A4172"/>
</svg>
