<svg width="215" height="30" viewBox="0 0 215 30" fill="none" xmlns="http://www.w3.org/2000/svg">
<g clip-path="url(#clip0_22_95)">
<path d="M68.0519 11.028C64.8439 9.72362 62.0711 8.59644 62.0711 6.35242C62.0711 4.32868 64.3202 3.4235 66.5484 3.4235C69.2206 3.4235 70.6408 4.6849 71.2997 7.64136C71.4263 8.21269 71.8043 8.69453 72.3367 8.96471C72.8656 9.23145 73.4742 9.2521 74.0118 9.0215C75.3626 8.43812 76.136 7.31439 76.136 5.93769C76.136 2.90207 72.3766 0.697632 67.197 0.697632C60.8365 0.697632 56.8863 3.85027 56.8863 8.92513C56.8863 13.6988 61.3914 15.5643 65.3658 17.2094C68.6692 18.5775 71.7887 19.8682 71.7887 22.5785C71.7887 25.5557 68.3622 25.9996 66.3213 25.9996C62.7786 25.9996 60.8833 24.1204 60.5261 20.2536C60.4932 19.9026 60.318 19.5773 60.0423 19.3605C59.7787 19.1523 59.4493 19.0611 59.125 19.1058C57.0337 19.3863 55.6292 20.9024 55.6292 22.8814C55.6292 26.8979 60.6787 28.7272 65.3693 28.7272C72.3575 28.7272 77.0515 25.1616 77.0515 19.8561C77.0498 14.6866 72.2691 12.7438 68.0519 11.028Z" fill="#351E04"/>
<path d="M132.888 26.5916C131.228 26.4522 131.149 25.5264 131.149 22.6181V6.27839C131.149 5.07034 131.263 3.50434 131.49 1.6217C131.546 1.16051 131.371 0.695875 131.024 0.380955C130.708 0.0935688 130.28 -0.0406594 129.858 0.0109668L123.451 0.78536C123.014 0.838707 122.686 1.20697 122.686 1.64236C122.686 2.06397 122.999 2.42363 123.427 2.49591C125.112 2.78157 125.128 3.96554 125.163 6.55717L125.229 9.6014C124.032 8.70138 122.615 8.26084 120.916 8.26084C115.36 8.26084 111.481 12.6095 111.481 18.8339C111.481 25.029 114.41 28.7272 119.315 28.7272C122.123 28.7272 124.223 27.495 125.709 24.9722C125.633 25.6916 125.534 26.4247 125.43 27.1681C125.372 27.5742 125.503 27.9786 125.787 28.2746C126.068 28.5672 126.463 28.7203 126.865 28.6876L132.895 28.2367C133.327 28.204 133.665 27.8427 133.665 27.4124C133.665 26.9822 133.332 26.6277 132.888 26.5916ZM121.181 25.9635C118.913 25.9635 117.81 23.5938 117.81 18.722C117.81 13.3168 119.095 10.4584 121.525 10.4584C123.153 10.4584 125.315 11.2328 125.315 17.927C125.315 22.8091 123.694 25.9635 121.181 25.9635Z" fill="#351E04"/>
<path d="M143.296 15.5659C140.79 14.7382 138.626 14.0223 138.626 12.4873C138.626 11.2689 139.815 10.5409 141.806 10.5409C144.206 10.5409 145.465 11.5666 146.011 13.9724C146.188 14.7502 146.932 15.2407 147.698 15.0823C148.711 14.8758 149.793 14.0946 149.793 12.5251C149.793 9.41205 145.695 8.30725 142.188 8.30725C136.829 8.30725 133.63 10.6614 133.63 14.6056C133.63 18.5017 137.356 19.8268 140.644 20.997C143.179 21.8987 145.369 22.6783 145.369 24.4026C145.369 26.2284 143.186 26.5003 141.884 26.5003C139.286 26.5003 137.807 25.3456 137.232 22.8693C137.05 22.0897 136.288 21.589 135.496 21.7249C134.065 21.9727 133.212 22.9605 133.212 24.3647C133.212 27.0424 136.451 28.7719 141.464 28.7719C147.388 28.7719 150.785 26.3523 150.785 22.1328C150.783 18.0405 146.632 16.669 143.296 15.5659Z" fill="#351E04"/>
<path d="M157.301 23.6454V15.5126H159.081V23.6454H157.301Z" fill="#351E04"/>
<path d="M163.525 23.6454V15.5126H165.162L168.458 19.8991C168.507 19.9541 168.566 20.0316 168.637 20.1297C168.708 20.2278 168.776 20.3259 168.84 20.4205C168.904 20.5152 168.947 20.5909 168.972 20.6459H169.031C169.031 20.5117 169.031 20.3792 169.031 20.2484C169.031 20.1176 169.031 20.0023 169.031 19.8991V15.5126H170.714V23.6454H169.077L165.708 19.1522C165.628 19.0421 165.545 18.9199 165.457 18.784C165.368 18.6497 165.306 18.5465 165.266 18.4759H165.207C165.207 18.5947 165.207 18.7117 165.207 18.8253C165.207 18.9406 165.207 19.049 165.207 19.1505V23.6437H163.525V23.6454Z" fill="#351E04"/>
<path d="M177.359 23.6454L174.396 15.5126H176.319L178.087 20.7045C178.119 20.7922 178.155 20.8955 178.195 21.0194C178.235 21.1416 178.275 21.262 178.315 21.3808C178.355 21.4995 178.386 21.6062 178.41 21.7008H178.481C178.512 21.6148 178.547 21.5133 178.582 21.398C178.618 21.2844 178.653 21.1674 178.689 21.0486C178.726 20.9299 178.759 20.8197 178.792 20.7165L180.56 15.5126H182.412L179.438 23.6454H177.359Z" fill="#351E04"/>
<path d="M186.078 23.6454V15.5126H192.624V16.9598H187.869V18.7736H192.074V20.2088H187.869V22.1878H192.695V23.6454H186.078Z" fill="#351E04"/>
<path d="M200.054 23.7866C199.576 23.7866 199.123 23.7384 198.693 23.6437C198.263 23.5491 197.883 23.3977 197.552 23.1877C197.221 22.9778 196.963 22.7127 196.775 22.3927C196.588 22.0726 196.494 21.6837 196.494 21.2242C196.494 21.1846 196.494 21.1433 196.494 21.1003C196.494 21.0573 196.498 21.0228 196.507 20.9988H198.275C198.267 21.0228 198.263 21.0538 198.263 21.0934C198.263 21.133 198.263 21.1691 198.263 21.2001C198.263 21.4531 198.332 21.6665 198.473 21.8403C198.612 22.0141 198.816 22.1449 199.089 22.2309C199.359 22.3187 199.675 22.3617 200.032 22.3617C200.262 22.3617 200.467 22.3479 200.647 22.3204C200.826 22.2929 200.986 22.2533 201.126 22.2016C201.265 22.15 201.381 22.0898 201.473 22.0175C201.565 21.947 201.632 21.8626 201.676 21.768C201.719 21.6733 201.742 21.5666 201.742 21.4479C201.742 21.2345 201.672 21.0607 201.532 20.9265C201.393 20.7922 201.201 20.677 200.958 20.5823C200.715 20.4877 200.443 20.3999 200.139 20.3207C199.836 20.2416 199.526 20.1607 199.208 20.0781C198.889 19.9955 198.579 19.8922 198.277 19.77C197.974 19.6479 197.703 19.4999 197.465 19.3261C197.226 19.1523 197.035 18.9303 196.891 18.6618C196.748 18.3933 196.676 18.0698 196.676 17.6895C196.676 17.2868 196.761 16.9392 196.933 16.6467C197.105 16.3541 197.346 16.1132 197.656 15.9239C197.967 15.7346 198.326 15.5935 198.731 15.5023C199.137 15.4111 199.579 15.3663 200.058 15.3663C200.503 15.3663 200.927 15.4111 201.324 15.5023C201.723 15.5935 202.073 15.738 202.375 15.9342C202.676 16.1321 202.914 16.3799 203.085 16.6811C203.257 16.9822 203.342 17.3367 203.342 17.748V17.896H201.61V17.8014C201.61 17.588 201.546 17.4056 201.419 17.2559C201.291 17.1061 201.112 16.9874 200.882 16.8996C200.651 16.8119 200.38 16.7688 200.07 16.7688C199.735 16.7688 199.451 16.7998 199.217 16.8635C198.981 16.9272 198.802 17.0201 198.679 17.1423C198.556 17.2645 198.494 17.409 198.494 17.5742C198.494 17.7635 198.563 17.9201 198.704 18.0423C198.842 18.1645 199.035 18.2712 199.278 18.3624C199.52 18.4536 199.793 18.5345 200.096 18.605C200.398 18.6756 200.71 18.7547 201.027 18.8425C201.346 18.9303 201.657 19.0318 201.958 19.1505C202.26 19.2693 202.532 19.4173 202.77 19.5945C203.009 19.7718 203.2 19.992 203.344 20.2519C203.488 20.5135 203.559 20.8249 203.559 21.188C203.559 21.8127 203.408 22.3135 203.105 22.6938C202.801 23.0724 202.388 23.3495 201.863 23.5233C201.334 23.7005 200.732 23.7866 200.054 23.7866Z" fill="#351E04"/>
<path d="M209.623 23.6454V16.9942H206.994V15.5126H214.053V16.9942H211.414V23.6454H209.623Z" fill="#351E04"/>
<path d="M112.341 22.0743C112.012 21.8558 112.013 21.4686 111.746 21.7714C110.226 23.4889 107.585 25.4249 105.263 25.4249C103.369 25.4249 100.442 24.2495 100.161 20.4033C100.118 19.8131 100.527 19.2813 101.117 19.1815C101.117 19.1815 107.633 18.6549 110.238 17.6465C111.15 17.2937 112.025 16.9151 112.119 15.9463C112.152 15.6021 112.169 15.2614 112.169 14.9017C112.169 10.3156 108.101 8.26257 104.068 8.26257C99.1207 8.26257 93.7955 11.4995 93.7955 18.6085C93.7955 24.6608 97.7404 28.7272 103.612 28.7272C107.434 28.7272 110.865 26.6725 112.624 23.0724C112.792 22.7214 112.671 22.2929 112.341 22.0743ZM103.588 10.4584C105.356 10.4584 106.44 11.9401 106.44 13.7814C106.44 15.9136 104.833 17.3574 100.251 17.5381C100.09 16.7792 100.05 16.0564 100.05 15.3698C100.05 12.8074 101.257 10.4584 103.588 10.4584Z" fill="#351E04"/>
<path d="M94.7822 22.0743C94.4527 21.8558 94.4544 21.4686 94.1874 21.7714C92.6666 23.4889 90.0257 25.4249 87.7038 25.4249C85.8102 25.4249 82.8832 24.2495 82.6023 20.4033C82.5589 19.8131 82.9681 19.2813 83.5577 19.1815C83.5577 19.1815 90.0743 18.6549 92.6788 17.6465C93.5909 17.2937 94.4666 16.9151 94.5602 15.9463C94.5932 15.6021 94.6105 15.2614 94.6105 14.9017C94.6105 10.3156 90.5424 8.26257 86.5091 8.26257C81.5618 8.26257 76.2366 11.4995 76.2366 18.6085C76.2366 24.6608 80.1815 28.7272 86.053 28.7272C89.8748 28.7272 93.3065 26.6725 95.0648 23.0724C95.2313 22.7214 95.1117 22.2929 94.7822 22.0743ZM86.027 10.4584C87.7957 10.4584 88.8795 11.9401 88.8795 13.7814C88.8795 15.9136 87.272 17.3574 82.6907 17.5381C82.5294 16.7792 82.4895 16.0564 82.4895 15.3698C82.4913 12.8074 83.6964 10.4584 86.027 10.4584Z" fill="#351E04"/>
<path d="M1.17147 18.5275C1.17147 18.5275 -0.951001 13.9414 0.517735 9.66501C1.98647 5.38864 6.48805 3.04309 6.48805 3.04309C6.48805 3.04309 8.61053 7.62922 7.14179 11.9056C5.67305 16.182 1.17147 18.5275 1.17147 18.5275Z" fill="#351E04"/>
<path d="M16.712 13.8295C19.6138 13.8295 21.9661 11.495 21.9661 8.61525C21.9661 5.7355 19.6138 3.401 16.712 3.401C13.8102 3.401 11.4578 5.7355 11.4578 8.61525C11.4578 11.495 13.8102 13.8295 16.712 13.8295Z" fill="#351E04"/>
<path d="M1.18011 24.2408C6.45161 23.5111 12.8502 24.1375 18.1634 24.4697C20.5546 24.6194 23.0464 24.2494 25.3943 23.7761C29.6826 22.9105 32.7623 19.0403 36.4281 16.6655C40.0938 14.2907 45.2318 14.0033 48.9687 16.2628C46.5636 17.2798 45.1607 19.7114 43.5827 21.7799C40.0279 26.4418 34.5449 29.9007 28.6543 29.9971C23.9204 30.0745 19.4483 28.056 14.8791 26.8255C10.5266 25.6536 5.68343 23.974 1.18011 24.2408Z" fill="#351E04"/>
<path d="M1.18011 22.3582C3.93725 19.1763 9.34227 18.352 13.3028 17.5776C15.6854 17.1095 18.7061 16.8084 20.9031 15.8842C24.3053 14.5402 26.7001 12.174 29.4503 9.65813C31.8935 7.36764 34.9801 4.98079 38.2748 3.63507C41.6753 2.19986 45.4884 1.59067 49.1074 1.50635L48.8282 9.14531C46.8948 8.93708 44.9908 8.90439 43.1423 9.10401C36.4523 9.77343 32.6374 14.1376 26.9758 17.2936C25.1516 18.2883 23.1435 19.073 21.087 19.4723C18.7252 19.856 15.8709 19.7218 13.5057 19.7665C9.55902 19.8646 4.34822 19.7562 1.18011 22.3582Z" fill="#351E04"/>
</g>
<defs>
<clipPath id="clip0_22_95">
<rect width="214.054" height="30" fill="white"/>
</clipPath>
</defs>
</svg>
