<svg width="235" height="182" viewBox="0 0 235 182" fill="none" xmlns="http://www.w3.org/2000/svg">
<path d="M30.6838 97.8356C22.7613 94.5769 15.9136 91.7609 15.9136 86.1548C15.9136 81.099 21.468 78.8377 26.9709 78.8377C33.5702 78.8377 37.0775 81.989 38.7049 89.3749C39.0175 90.8022 39.9511 92.006 41.2658 92.6809C42.5677 93.3473 44.0751 93.3989 45.4026 92.8228C48.7387 91.3654 50.6487 88.5581 50.6487 85.1187C50.6487 77.535 41.3643 72.0278 28.5726 72.0278C12.8645 72.0278 3.10907 79.9039 3.10907 92.5821C3.10907 104.508 14.2349 109.168 24.0503 113.278C32.2084 116.696 39.9125 119.92 39.9125 126.691C39.9125 134.129 31.4504 135.238 26.4099 135.238C17.6609 135.238 12.9801 130.543 12.0979 120.883C12.0166 120.006 11.5841 119.194 10.9031 118.652C10.2522 118.132 9.43854 117.904 8.63772 118.016C3.46879 118.717 0 122.508 0 127.448C0 137.482 12.4705 142.052 24.0546 142.052C41.3129 142.052 52.9055 133.144 52.9055 119.89C52.9055 106.976 41.0988 102.122 30.6838 97.8356Z" fill="#54160A"/>
<path d="M190.805 136.717C186.707 136.369 186.51 134.056 186.51 126.79V85.97C186.51 82.952 186.792 79.0398 187.353 74.3365C187.49 73.1843 187.058 72.0236 186.201 71.2368C185.422 70.5188 184.364 70.1835 183.324 70.3125L167.5 72.2471C166.421 72.3804 165.611 73.3004 165.611 74.3881C165.611 75.4414 166.382 76.3399 167.44 76.5205C171.602 77.2341 171.641 80.1919 171.727 86.6664L171.889 94.2716C168.934 92.0232 165.436 90.9226 161.239 90.9226C147.518 90.9226 137.938 101.787 137.938 117.337C137.938 132.813 145.171 142.052 157.286 142.052C164.22 142.052 169.406 138.974 173.076 132.672C172.887 134.469 172.643 136.3 172.386 138.157C172.245 139.172 172.566 140.182 173.268 140.922C173.962 141.652 174.939 142.035 175.932 141.953L190.822 140.827C191.888 140.745 192.724 139.843 192.724 138.768C192.724 137.693 191.901 136.807 190.805 136.717ZM161.894 135.148C156.293 135.148 153.569 129.228 153.569 117.057C153.569 103.553 156.742 96.4126 162.742 96.4126C166.763 96.4126 172.104 98.3472 172.104 115.071C172.104 127.268 168.095 135.148 161.894 135.148Z" fill="#54160A"/>
<path d="M216.508 109.172C210.32 107.105 204.976 105.316 204.976 101.481C204.976 98.4375 207.913 96.619 212.83 96.619C218.757 96.619 221.866 99.1813 223.215 105.191C223.651 107.135 225.489 108.36 227.382 107.964C229.882 107.449 232.555 105.497 232.555 101.576C232.555 93.7988 222.435 91.0387 213.772 91.0387C200.539 91.0387 192.638 96.9199 192.638 106.774C192.638 116.507 201.841 119.817 209.96 122.741C216.221 124.993 221.63 126.941 221.63 131.249C221.63 135.81 216.239 136.489 213.022 136.489C206.607 136.489 202.954 133.605 201.533 127.418C201.083 125.471 199.203 124.22 197.246 124.559C193.713 125.178 191.606 127.646 191.606 131.154C191.606 137.843 199.605 142.164 211.986 142.164C226.615 142.164 235.004 136.12 235.004 125.578C235 115.355 224.748 111.928 216.508 109.172Z" fill="#54160A"/>
<path d="M46.7944 181.643V161.325H51.1882V181.643H46.7944Z" fill="#54160A"/>
<path d="M62.1642 181.643V161.325H66.2068L74.3478 172.284C74.4677 172.421 74.6133 172.615 74.7889 172.86C74.9645 173.105 75.1315 173.35 75.2899 173.587C75.4484 173.823 75.5554 174.012 75.6154 174.15H75.761C75.761 173.814 75.761 173.483 75.761 173.157C75.761 172.83 75.761 172.542 75.761 172.284V161.325H79.9193V181.643H75.8766L67.5558 170.418C67.3588 170.143 67.1533 169.838 66.9348 169.498C66.7164 169.163 66.5623 168.905 66.4638 168.729H66.3182C66.3182 169.025 66.3182 169.317 66.3182 169.601C66.3182 169.889 66.3182 170.16 66.3182 170.414V181.639H62.1642V181.643Z" fill="#54160A"/>
<path d="M96.3254 181.643L89.0067 161.325H93.7559L98.124 174.296C98.2011 174.515 98.291 174.773 98.3895 175.083C98.488 175.388 98.5865 175.689 98.685 175.985C98.7835 176.282 98.8606 176.549 98.9206 176.785H99.0961C99.1732 176.57 99.2589 176.317 99.3445 176.028C99.4344 175.745 99.5201 175.452 99.61 175.156C99.7 174.859 99.7813 174.584 99.8627 174.326L104.231 161.325H108.804L101.46 181.643H96.3254Z" fill="#54160A"/>
<path d="M117.862 181.643V161.325H134.028V164.941H122.286V169.472H132.671V173.058H122.286V178.002H134.204V181.643H117.862Z" fill="#54160A"/>
<path d="M152.378 182C151.197 182 150.079 181.88 149.017 181.643C147.955 181.407 147.017 181.028 146.199 180.504C145.381 179.979 144.743 179.317 144.28 178.518C143.818 177.718 143.587 176.746 143.587 175.599C143.587 175.5 143.587 175.396 143.587 175.289C143.587 175.182 143.595 175.096 143.617 175.035H147.985C147.963 175.096 147.955 175.173 147.955 175.272C147.955 175.371 147.955 175.461 147.955 175.538C147.955 176.17 148.126 176.703 148.473 177.138C148.815 177.572 149.321 177.899 149.993 178.114C150.661 178.333 151.441 178.44 152.323 178.44C152.892 178.44 153.398 178.406 153.843 178.337C154.284 178.268 154.678 178.169 155.025 178.04C155.368 177.911 155.655 177.761 155.882 177.58C156.109 177.404 156.276 177.193 156.383 176.957C156.49 176.721 156.545 176.454 156.545 176.157C156.545 175.624 156.374 175.19 156.027 174.855C155.685 174.519 155.209 174.231 154.61 173.995C154.01 173.758 153.338 173.539 152.588 173.341C151.839 173.144 151.072 172.942 150.289 172.735C149.501 172.529 148.734 172.271 147.989 171.966C147.24 171.661 146.571 171.291 145.985 170.857C145.394 170.422 144.923 169.868 144.567 169.197C144.212 168.526 144.036 167.718 144.036 166.768C144.036 165.762 144.246 164.894 144.67 164.163C145.094 163.432 145.689 162.83 146.456 162.357C147.222 161.884 148.109 161.532 149.111 161.304C150.113 161.076 151.205 160.964 152.387 160.964C153.488 160.964 154.528 161.076 155.513 161.304C156.498 161.532 157.363 161.893 158.108 162.383C158.854 162.877 159.44 163.496 159.864 164.249C160.288 165.001 160.498 165.887 160.498 166.914V167.271H156.22V167.035C156.22 166.502 156.061 166.046 155.749 165.672C155.432 165.298 154.991 165.001 154.421 164.782C153.852 164.563 153.184 164.455 152.417 164.455C151.591 164.455 150.888 164.533 150.31 164.692C149.728 164.851 149.287 165.083 148.983 165.388C148.678 165.693 148.524 166.054 148.524 166.467C148.524 166.94 148.696 167.331 149.042 167.637C149.385 167.942 149.86 168.208 150.46 168.436C151.059 168.664 151.732 168.866 152.481 169.042C153.226 169.219 153.997 169.416 154.781 169.636C155.569 169.855 156.335 170.109 157.081 170.405C157.826 170.702 158.498 171.072 159.085 171.514C159.676 171.957 160.147 172.507 160.502 173.157C160.858 173.81 161.033 174.588 161.033 175.495C161.033 177.056 160.661 178.307 159.911 179.257C159.162 180.203 158.143 180.895 156.845 181.329C155.535 181.781 154.049 182 152.378 182Z" fill="#54160A"/>
<path d="M176.009 181.643V165.027H169.517V161.325H186.951V165.027H180.433V181.643H176.009Z" fill="#54160A"/>
<path d="M140.062 125.432C139.248 124.886 139.253 123.919 138.593 124.675C134.838 128.966 128.315 133.802 122.581 133.802C117.905 133.802 110.676 130.866 109.982 121.257C109.875 119.783 110.886 118.454 112.342 118.205C112.342 118.205 128.435 116.889 134.868 114.37C137.12 113.489 139.283 112.543 139.514 110.123C139.595 109.263 139.638 108.412 139.638 107.513C139.638 96.0558 129.592 90.9269 119.631 90.9269C107.413 90.9269 94.2612 99.0136 94.2612 116.773C94.2612 131.893 104.004 142.052 118.504 142.052C127.943 142.052 136.418 136.919 140.76 127.925C141.176 127.048 140.876 125.978 140.062 125.432ZM118.444 96.4126C122.812 96.4126 125.489 100.114 125.489 104.714C125.489 110.041 121.519 113.648 110.205 114.099C109.807 112.203 109.708 110.398 109.708 108.682C109.708 102.281 112.689 96.4126 118.444 96.4126Z" fill="#54160A"/>
<path d="M96.6979 125.432C95.8843 124.886 95.8886 123.919 95.2291 124.675C91.4733 128.966 84.9512 133.802 79.2169 133.802C74.5448 133.802 67.3117 130.866 66.6179 121.257C66.5109 119.783 67.5215 118.454 68.9776 118.205C68.9776 118.205 85.0711 116.889 91.5033 114.37C93.7559 113.489 95.9185 112.543 96.1498 110.123C96.2312 109.263 96.274 108.412 96.274 107.513C96.274 96.0558 86.2273 90.9269 76.2663 90.9269C64.0485 90.9269 50.897 99.0136 50.897 116.773C50.897 131.893 60.6396 142.052 75.14 142.052C84.5786 142.052 93.0536 136.919 97.396 127.925C97.8071 127.048 97.5116 125.978 96.6979 125.432ZM75.0758 96.4126C79.4439 96.4126 82.1204 100.114 82.1204 104.714C82.1204 110.041 78.1506 113.648 66.8364 114.099C66.4381 112.203 66.3396 110.398 66.3396 108.682C66.3439 102.281 69.3202 96.4126 75.0758 96.4126Z" fill="#54160A"/>
<path d="M62.5325 42.5271C62.5325 42.5271 57.2907 31.0699 60.918 20.3865C64.5452 9.70312 75.6625 3.84338 75.6625 3.84338C75.6625 3.84338 80.9042 15.3006 77.277 25.984C73.6497 36.6631 62.5325 42.5271 62.5325 42.5271Z" fill="#54160A"/>
<path d="M100.912 30.7905C108.078 30.7905 113.888 24.9584 113.888 17.7641C113.888 10.5698 108.078 4.73767 100.912 4.73767C93.7455 4.73767 87.936 10.5698 87.936 17.7641C87.936 24.9584 93.7455 30.7905 100.912 30.7905Z" fill="#54160A"/>
<path d="M62.5539 56.796C75.5726 54.9732 91.3748 56.5381 104.496 57.3678C110.402 57.7418 116.556 56.8175 122.354 55.6352C132.945 53.4728 140.55 43.804 149.603 37.8712C158.657 31.9383 171.346 31.2204 180.574 36.8652C174.634 39.406 171.17 45.4807 167.273 50.6482C158.494 62.2946 144.953 70.9359 130.405 71.1766C118.714 71.3701 107.67 66.3272 96.3853 63.2533C85.6321 60.3256 73.6712 56.1339 62.5539 56.796Z" fill="#54160A"/>
<path d="M62.5539 52.097C69.363 44.1479 82.7114 42.0886 92.4926 40.154C98.3767 38.9846 105.837 38.2323 111.263 35.9237C119.665 32.566 125.579 26.6547 132.371 20.3693C138.405 14.6472 146.028 8.68427 154.164 5.32234C162.562 1.73256 171.979 0.210658 180.917 0L180.227 19.0839C175.452 18.5637 170.75 18.482 166.185 18.9807C149.663 20.6531 140.242 31.5557 126.26 39.4404C121.755 41.9253 116.796 43.8857 111.717 44.8831C105.884 45.8418 98.8349 45.5064 92.9936 45.6182C83.2425 45.8676 70.3779 45.5967 62.5539 52.097Z" fill="#54160A"/>
</svg>
