<svg width="1349" height="570" viewBox="0 0 1349 570" fill="none" xmlns="http://www.w3.org/2000/svg">
<path d="M-833.49 569.4V527.06H-817.43C-806.723 527.06 -796.99 526.087 -788.23 524.14C-779.47 522.68 -772.413 518.787 -767.06 512.46C-761.707 506.133 -759.03 496.887 -759.03 484.72V440.92C-759.03 431.673 -758.787 421.94 -758.3 411.72C-757.813 401.987 -757.083 392.497 -756.11 383.25C-755.137 373.517 -754.407 364.757 -753.92 356.97H-759.03C-765.357 366.703 -773.63 375.463 -783.85 383.25C-793.583 391.037 -805.02 397.12 -818.16 401.5C-831.3 406.367 -846.873 408.8 -864.88 408.8C-911.6 408.8 -947.857 392.497 -973.65 359.89C-999.443 326.797 -1012.34 274.967 -1012.34 204.4C-1012.34 157.68 -1006.5 119.477 -994.82 89.79C-983.14 60.1033 -965.863 38.2033 -942.99 24.09C-920.117 9.97667 -892.133 2.92001 -859.04 2.92001C-832.273 2.92001 -809.887 8.76 -791.88 20.44C-773.873 31.6333 -759.517 47.2067 -748.81 67.16H-742.97L-728.37 10.22H-568.5V51.83H-571.42C-581.64 51.83 -591.373 53.0466 -600.62 55.48C-609.867 57.9133 -617.167 62.78 -622.52 70.08C-627.873 76.8933 -630.55 87.8433 -630.55 102.93V483.26C-630.55 496.4 -627.873 506.133 -622.52 512.46C-617.167 518.787 -610.11 522.68 -601.35 524.14C-592.59 526.087 -582.857 527.06 -572.15 527.06H-564.12V569.4H-833.49ZM-824 351.86C-811.347 351.86 -800.883 348.697 -792.61 342.37C-784.337 336.043 -777.767 326.797 -772.9 314.63C-767.547 301.977 -763.897 286.647 -761.95 268.64C-760.003 250.147 -759.03 229.463 -759.03 206.59C-759.03 173.01 -760.977 145.513 -764.87 124.1C-768.763 102.687 -775.333 86.87 -784.58 76.65C-793.827 65.9433 -806.967 60.59 -824 60.59C-838.113 60.59 -849.55 65.9433 -858.31 76.65C-867.07 86.87 -873.397 102.687 -877.29 124.1C-881.183 145.513 -883.13 172.523 -883.13 205.13C-883.13 236.763 -881.183 263.53 -877.29 285.43C-873.397 307.33 -867.07 323.877 -858.31 335.07C-849.55 346.263 -838.113 351.86 -824 351.86Z" fill="#F4EEE9"/>
<path d="M-415.12 408.8C-456.974 408.8 -487.877 396.877 -507.83 373.03C-527.297 349.183 -537.03 312.683 -537.03 263.53V104.39C-537.03 90.2767 -538.247 79.57 -540.68 72.27C-543.114 64.4833 -547.494 59.13 -553.82 56.21C-560.147 53.29 -569.394 51.83 -581.56 51.83H-583.75V10.22H-408.55V236.52C-408.55 257.447 -407.334 275.697 -404.9 291.27C-401.98 306.843 -397.114 319.01 -390.3 327.77C-383.487 336.53 -373.997 340.91 -361.83 340.91C-348.69 340.91 -337.984 336.53 -329.71 327.77C-321.437 319.01 -315.354 306.6 -311.46 290.54C-307.567 273.993 -305.62 254.77 -305.62 232.87V96.36C-305.62 82.7333 -307.567 72.7567 -311.46 66.43C-315.354 60.1033 -320.707 56.21 -327.52 54.75C-334.334 52.8033 -342.12 51.83 -350.88 51.83H-353.8V10.22H-177.87V314.63C-177.87 328.743 -176.167 338.963 -172.76 345.29C-168.867 351.617 -163.514 355.753 -156.7 357.7C-149.887 359.16 -142.1 359.89 -133.34 359.89H-126.04V401.5H-282.99L-301.97 352.59H-305.62C-311.46 362.81 -318.274 371.57 -326.06 378.87C-333.847 385.683 -342.364 391.523 -351.61 396.39C-360.37 400.77 -370.104 403.933 -380.81 405.88C-391.517 407.827 -402.954 408.8 -415.12 408.8Z" fill="#F4EEE9"/>
<path d="M78.1317 408.8C11.9451 408.8 -37.4517 391.28 -70.0583 356.24C-102.665 320.713 -118.968 271.073 -118.968 207.32C-118.968 138.7 -102.665 87.1133 -70.0583 52.56C-36.965 17.52 9.51172 0 69.3717 0C124.852 0 168.408 14.8433 200.042 44.53C232.162 74.2167 248.222 118.017 248.222 175.93V215.35H10.2416C11.215 246.497 15.3516 272.047 22.6516 292C30.4382 311.953 41.3884 326.797 55.5017 336.53C69.615 345.777 86.8917 350.4 107.332 350.4C124.365 350.4 138.965 347.723 151.132 342.37C163.785 336.53 174.492 328.987 183.252 319.74C192.498 310.007 199.798 299.057 205.152 286.89C213.425 289.81 219.752 294.433 224.132 300.76C228.998 306.6 231.432 314.143 231.432 323.39C231.432 337.503 226.078 351.13 215.372 364.27C205.152 377.41 188.848 388.117 166.462 396.39C144.075 404.663 114.632 408.8 78.1317 408.8ZM121.202 165.71C121.202 140.89 119.498 119.963 116.092 102.93C112.685 85.8967 107.332 73 100.032 64.24C93.2183 54.9933 83.9717 50.37 72.2916 50.37C60.6116 50.37 50.1483 54.75 40.9016 63.51C31.6549 72.27 24.5984 85.1667 19.7317 102.2C14.865 119.233 12.1884 140.403 11.7017 165.71H121.202Z" fill="#F4EEE9"/>
<path d="M245.256 401.5V359.89H247.446C258.639 359.89 268.129 358.673 275.916 356.24C283.703 353.807 289.786 349.183 294.166 342.37C298.546 335.07 300.736 324.363 300.736 310.25V95.63C300.736 82.49 298.546 72.5133 294.166 65.7C290.273 58.8867 284.433 54.5067 276.646 52.56C269.346 50.1267 260.343 48.91 249.636 48.91H247.446V10.22H416.076L425.566 59.13H429.216C437.003 45.0167 446.006 33.8233 456.226 25.55C466.933 16.79 479.586 10.4633 494.186 6.57C508.786 2.19 525.819 0 545.286 0C563.779 0 579.839 2.19 593.466 6.57C607.579 10.4633 619.746 16.79 629.966 25.55C640.186 34.31 647.973 45.5033 653.326 59.13H658.436C665.736 45.0167 674.739 33.8233 685.446 25.55C696.639 16.79 709.536 10.4633 724.136 6.57C739.223 2.19 756.013 0 774.506 0C813.439 0 843.613 11.1933 865.026 33.58C886.926 55.48 897.876 91.0067 897.876 140.16V308.06C897.876 323.147 899.336 334.34 902.256 341.64C905.663 348.94 910.773 353.807 917.586 356.24C924.399 358.673 933.159 359.89 943.866 359.89H946.786V401.5H770.126V166.44C770.126 134.807 766.233 110.473 758.446 93.44C751.146 76.4067 738.006 67.89 719.026 67.89C705.886 67.89 694.936 72.7567 686.176 82.49C677.903 91.7367 671.819 104.147 667.926 119.72C664.519 134.807 662.816 151.84 662.816 170.82V308.06C662.816 322.66 664.276 333.853 667.196 341.64C670.116 348.94 674.983 353.807 681.796 356.24C688.609 358.673 697.369 359.89 708.076 359.89H710.996V401.5H535.066V166.44C535.066 134.807 531.416 110.473 524.116 93.44C516.816 76.4067 503.676 67.89 484.696 67.89C470.583 67.89 459.389 73.2433 451.116 83.95C443.329 94.17 437.489 107.797 433.596 124.83C430.189 141.377 428.486 159.383 428.486 178.85V312.44C428.486 326.067 430.433 336.287 434.326 343.1C438.219 349.427 443.816 353.807 451.116 356.24C458.416 358.673 467.419 359.89 478.126 359.89H480.316V401.5H245.256Z" fill="#F4EEE9"/>
<path d="M1240.04 408.8C1201.59 408.8 1171.18 404.907 1148.79 397.12C1126.4 389.333 1110.34 378.87 1100.61 365.73C1090.88 352.59 1086.01 338.233 1086.01 322.66C1086.01 307.573 1089.66 295.893 1096.96 287.62C1104.26 279.347 1113.51 273.75 1124.7 270.83C1135.89 267.423 1147.33 265.72 1159.01 265.72C1159.01 287.133 1162.42 304.897 1169.23 319.01C1176.04 333.123 1185.53 343.587 1197.7 350.4C1210.35 357.213 1224.71 360.62 1240.77 360.62C1265.1 360.62 1282.38 356.24 1292.6 347.48C1303.31 338.72 1308.66 328.257 1308.66 316.09C1308.66 306.357 1305.5 297.84 1299.17 290.54C1293.33 283.24 1283.84 276.427 1270.7 270.1C1258.05 263.773 1241.01 257.447 1219.6 251.12C1191.37 242.36 1167.77 232.627 1148.79 221.92C1130.3 210.727 1116.18 197.1 1106.45 181.04C1096.72 164.98 1091.85 145.27 1091.85 121.91C1091.85 80.5433 1106.94 50.1267 1137.11 30.66C1167.28 10.7067 1207.19 0.729991 1256.83 0.729991C1288.95 0.729991 1314.74 4.13666 1334.21 10.95C1354.16 17.7633 1368.52 26.5233 1377.28 37.23C1386.04 47.9367 1390.42 58.8867 1390.42 70.08C1390.42 87.1133 1384.34 100.01 1372.17 108.77C1360 117.53 1340.29 121.91 1313.04 121.91C1313.04 97.5767 1306.71 79.0833 1294.06 66.43C1281.89 53.29 1265.59 46.72 1245.15 46.72C1234.93 46.72 1225.68 48.4233 1217.41 51.83C1209.14 54.75 1202.32 59.13 1196.97 64.97C1192.1 70.81 1189.67 78.11 1189.67 86.87C1189.67 96.6033 1192.35 105.12 1197.7 112.42C1203.05 119.233 1212.54 125.803 1226.17 132.13C1239.8 138.457 1258.78 145.513 1283.11 153.3C1306.96 161.087 1328.13 170.09 1346.62 180.31C1365.11 190.53 1379.47 203.427 1389.69 219C1399.91 234.573 1405.02 254.04 1405.02 277.4C1405.02 317.307 1390.91 349.183 1362.68 373.03C1334.94 396.877 1294.06 408.8 1240.04 408.8Z" fill="#F4EEE9"/>
<path d="M1612.41 408.8C1551.58 408.8 1503.64 392.01 1468.6 358.43C1434.05 324.363 1416.77 272.777 1416.77 203.67C1416.77 135.05 1433.32 83.95 1466.41 50.37C1499.99 16.79 1549.39 0 1614.6 0C1675.43 0 1723.37 16.79 1758.41 50.37C1793.45 83.95 1810.97 135.05 1810.97 203.67C1810.97 272.777 1794.18 324.363 1760.6 358.43C1727.02 392.01 1677.62 408.8 1612.41 408.8ZM1613.87 359.89C1630.42 359.89 1643.56 354.05 1653.29 342.37C1663.02 330.203 1670.08 312.683 1674.46 289.81C1678.84 266.45 1681.03 237.737 1681.03 203.67C1681.03 169.603 1678.6 141.133 1673.73 118.26C1669.35 95.3867 1662.29 78.3533 1652.56 67.16C1642.83 55.48 1629.69 49.64 1613.14 49.64C1597.08 49.64 1584.18 55.48 1574.45 67.16C1564.72 78.3533 1557.66 95.3867 1553.28 118.26C1548.9 141.133 1546.71 169.603 1546.71 203.67C1546.71 237.737 1548.9 266.45 1553.28 289.81C1557.66 312.683 1564.72 330.203 1574.45 342.37C1584.67 354.05 1597.81 359.89 1613.87 359.89Z" fill="#F4EEE9"/>
<path d="M1811.65 401.5V359.89H1813.84C1825.03 359.89 1834.52 358.673 1842.31 356.24C1850.09 353.807 1856.18 349.183 1860.56 342.37C1864.94 335.07 1867.13 324.363 1867.13 310.25V95.63C1867.13 82.49 1864.94 72.5133 1860.56 65.7C1856.66 58.8867 1850.82 54.5067 1843.04 52.56C1835.74 50.1267 1826.73 48.91 1816.03 48.91H1813.84V10.22H1982.47L1991.96 59.13H1995.61C2003.39 45.0167 2012.4 33.8233 2022.62 25.55C2033.32 16.79 2045.98 10.4633 2060.58 6.57C2075.18 2.19 2092.21 0 2111.68 0C2130.17 0 2146.23 2.19 2159.86 6.57C2173.97 10.4633 2186.14 16.79 2196.36 25.55C2206.58 34.31 2214.36 45.5033 2219.72 59.13H2224.83C2232.13 45.0167 2241.13 33.8233 2251.84 25.55C2263.03 16.79 2275.93 10.4633 2290.53 6.57C2305.61 2.19 2322.4 0 2340.9 0C2379.83 0 2410 11.1933 2431.42 33.58C2453.32 55.48 2464.27 91.0067 2464.27 140.16V308.06C2464.27 323.147 2465.73 334.34 2468.65 341.64C2472.05 348.94 2477.16 353.807 2483.98 356.24C2490.79 358.673 2499.55 359.89 2510.26 359.89H2513.18V401.5H2336.52V166.44C2336.52 134.807 2332.62 110.473 2324.84 93.44C2317.54 76.4067 2304.4 67.89 2285.42 67.89C2272.28 67.89 2261.33 72.7567 2252.57 82.49C2244.29 91.7367 2238.21 104.147 2234.32 119.72C2230.91 134.807 2229.21 151.84 2229.21 170.82V308.06C2229.21 322.66 2230.67 333.853 2233.59 341.64C2236.51 348.94 2241.37 353.807 2248.19 356.24C2255 358.673 2263.76 359.89 2274.47 359.89H2277.39V401.5H2101.46V166.44C2101.46 134.807 2097.81 110.473 2090.51 93.44C2083.21 76.4067 2070.07 67.89 2051.09 67.89C2036.97 67.89 2025.78 73.2433 2017.51 83.95C2009.72 94.17 2003.88 107.797 1999.99 124.83C1996.58 141.377 1994.88 159.383 1994.88 178.85V312.44C1994.88 326.067 1996.82 336.287 2000.72 343.1C2004.61 349.427 2010.21 353.807 2017.51 356.24C2024.81 358.673 2033.81 359.89 2044.52 359.89H2046.71V401.5H1811.65Z" fill="#F4EEE9"/>
<path d="M2714.62 408.8C2653.79 408.8 2605.85 392.01 2570.81 358.43C2536.26 324.363 2518.98 272.777 2518.98 203.67C2518.98 135.05 2535.53 83.95 2568.62 50.37C2602.2 16.79 2651.6 0 2716.81 0C2777.65 0 2825.58 16.79 2860.62 50.37C2895.66 83.95 2913.18 135.05 2913.18 203.67C2913.18 272.777 2896.39 324.363 2862.81 358.43C2829.23 392.01 2779.84 408.8 2714.62 408.8ZM2716.08 359.89C2732.63 359.89 2745.77 354.05 2755.5 342.37C2765.24 330.203 2772.29 312.683 2776.67 289.81C2781.05 266.45 2783.24 237.737 2783.24 203.67C2783.24 169.603 2780.81 141.133 2775.94 118.26C2771.56 95.3867 2764.51 78.3533 2754.77 67.16C2745.04 55.48 2731.9 49.64 2715.35 49.64C2699.29 49.64 2686.4 55.48 2676.66 67.16C2666.93 78.3533 2659.87 95.3867 2655.49 118.26C2651.11 141.133 2648.92 169.603 2648.92 203.67C2648.92 237.737 2651.11 266.45 2655.49 289.81C2659.87 312.683 2666.93 330.203 2676.66 342.37C2686.88 354.05 2700.02 359.89 2716.08 359.89Z" fill="#F4EEE9"/>
<path d="M3075.19 408.8C3036.75 408.8 3006.33 404.907 2983.94 397.12C2961.56 389.333 2945.5 378.87 2935.76 365.73C2926.03 352.59 2921.16 338.233 2921.16 322.66C2921.16 307.573 2924.81 295.893 2932.11 287.62C2939.41 279.347 2948.66 273.75 2959.85 270.83C2971.05 267.423 2982.48 265.72 2994.16 265.72C2994.16 287.133 2997.57 304.897 3004.38 319.01C3011.2 333.123 3020.69 343.587 3032.85 350.4C3045.51 357.213 3059.86 360.62 3075.92 360.62C3100.26 360.62 3117.53 356.24 3127.75 347.48C3138.46 338.72 3143.81 328.257 3143.81 316.09C3143.81 306.357 3140.65 297.84 3134.32 290.54C3128.48 283.24 3118.99 276.427 3105.85 270.1C3093.2 263.773 3076.17 257.447 3054.75 251.12C3026.53 242.36 3002.92 232.627 2983.94 221.92C2965.45 210.727 2951.34 197.1 2941.6 181.04C2931.87 164.98 2927 145.27 2927 121.91C2927 80.5433 2942.09 50.1267 2972.26 30.66C3002.44 10.7067 3042.34 0.729991 3091.98 0.729991C3124.1 0.729991 3149.9 4.13666 3169.36 10.95C3189.32 17.7633 3203.67 26.5233 3212.43 37.23C3221.19 47.9367 3225.57 58.8867 3225.57 70.08C3225.57 87.1133 3219.49 100.01 3207.32 108.77C3195.16 117.53 3175.45 121.91 3148.19 121.91C3148.19 97.5767 3141.87 79.0833 3129.21 66.43C3117.05 53.29 3100.74 46.72 3080.3 46.72C3070.08 46.72 3060.84 48.4233 3052.56 51.83C3044.29 54.75 3037.48 59.13 3032.12 64.97C3027.26 70.81 3024.82 78.11 3024.82 86.87C3024.82 96.6033 3027.5 105.12 3032.85 112.42C3038.21 119.233 3047.7 125.803 3061.32 132.13C3074.95 138.457 3093.93 145.513 3118.26 153.3C3142.11 161.087 3163.28 170.09 3181.77 180.31C3200.27 190.53 3214.62 203.427 3224.84 219C3235.06 234.573 3240.17 254.04 3240.17 277.4C3240.17 317.307 3226.06 349.183 3197.83 373.03C3170.09 396.877 3129.21 408.8 3075.19 408.8Z" fill="#F4EEE9"/>
</svg>
