<svg width="430" height="73" viewBox="0 0 430 73" fill="none" xmlns="http://www.w3.org/2000/svg">
<path d="M-43.0366 73V67.5718H-40.9746C-39.5999 67.5718 -38.3502 67.447 -37.2255 67.1974C-36.1007 67.0103 -35.1947 66.5111 -34.5073 65.7C-33.82 64.8889 -33.4763 63.7034 -33.4763 62.1436V56.5282C-33.4763 55.3427 -33.4451 54.0949 -33.3826 52.7846C-33.3201 51.5368 -33.2264 50.3201 -33.1014 49.1346C-32.9765 47.8867 -32.8827 46.7637 -32.8202 45.7654H-33.4763C-34.2887 47.0132 -35.3509 48.1363 -36.6631 49.1346C-37.9128 50.1329 -39.3812 50.9128 -41.0683 51.4744C-42.7554 52.0983 -44.755 52.4103 -47.0669 52.4103C-53.0655 52.4103 -57.7207 50.3201 -61.0324 46.1397C-64.3441 41.897 -66 35.2521 -66 26.2051C-66 20.2154 -65.2502 15.3175 -63.7505 11.5115C-62.2509 7.70555 -60.0326 4.89786 -57.0958 3.08846C-54.159 1.27906 -50.5661 0.37436 -46.3171 0.37436C-42.8804 0.37436 -40.0061 1.12308 -37.6941 2.62051C-35.3821 4.05556 -33.5388 6.05213 -32.1641 8.61025H-31.4143L-29.5398 1.31026H-9.01329V6.64487H-9.38821C-10.7004 6.64487 -11.9501 6.80085 -13.1373 7.11282C-14.3246 7.42479 -15.2618 8.04872 -15.9492 8.98461C-16.6365 9.85812 -16.9802 11.262 -16.9802 13.1962V61.9564C-16.9802 63.641 -16.6365 64.8889 -15.9492 65.7C-15.2618 66.5111 -14.3558 67.0103 -13.2311 67.1974C-12.1063 67.447 -10.8566 67.5718 -9.48194 67.5718H-8.45093V73H-43.0366ZM-41.8181 45.1103C-40.1935 45.1103 -38.8501 44.7047 -37.7878 43.8936C-36.7256 43.0825 -35.882 41.897 -35.2572 40.3372C-34.5698 38.715 -34.1012 36.7496 -33.8512 34.441C-33.6013 32.0701 -33.4763 29.4184 -33.4763 26.4859C-33.4763 22.1808 -33.7263 18.6556 -34.2262 15.9103C-34.726 13.165 -35.5696 11.1372 -36.7568 9.82692C-37.944 8.45427 -39.6312 7.76795 -41.8181 7.76795C-43.6302 7.76795 -45.0986 8.45427 -46.2234 9.82692C-47.3481 11.1372 -48.1604 13.165 -48.6603 15.9103C-49.1602 18.6556 -49.4101 22.1184 -49.4101 26.2987C-49.4101 30.3543 -49.1602 33.7859 -48.6603 36.5936C-48.1604 39.4013 -47.3481 41.5226 -46.2234 42.9577C-45.0986 44.3927 -43.6302 45.1103 -41.8181 45.1103Z" fill="#F4EEE9"/>
<path d="M10.6799 52.4103C5.30611 52.4103 1.33829 50.8816 -1.22361 47.8244C-3.72303 44.7671 -4.97274 40.0876 -4.97274 33.7859V13.3833C-4.97274 11.5739 -5.12895 10.2013 -5.44138 9.26538C-5.75381 8.26709 -6.31617 7.58077 -7.12848 7.20641C-7.94079 6.83205 -9.12802 6.64487 -10.6902 6.64487H-10.9713V1.31026H11.5234V30.3231C11.5234 33.006 11.6796 35.3457 11.9921 37.3423C12.367 39.3389 12.9918 40.8987 13.8666 42.0218C14.7414 43.1449 15.9599 43.7064 17.522 43.7064C19.2091 43.7064 20.5838 43.1449 21.6461 42.0218C22.7083 40.8987 23.4894 39.3077 23.9893 37.2487C24.4891 35.1273 24.7391 32.6628 24.7391 29.8551V12.3538C24.7391 10.6068 24.4891 9.32778 23.9893 8.51667C23.4894 7.70555 22.802 7.20641 21.9272 7.01923C21.0524 6.76966 20.0527 6.64487 18.9279 6.64487H18.553V1.31026H41.1415V40.3372C41.1415 42.1466 41.3602 43.4568 41.7976 44.2679C42.2975 45.0791 42.9848 45.6094 43.8596 45.859C44.7344 46.0462 45.7342 46.1397 46.8589 46.1397H47.7962V51.4744H27.6447L25.2077 45.2038H24.7391C23.9893 46.5141 23.1145 47.6372 22.1147 48.5731C21.1149 49.4466 20.0214 50.1953 18.8342 50.8192C17.7095 51.3808 16.4598 51.7863 15.0851 52.0359C13.7104 52.2855 12.242 52.4103 10.6799 52.4103Z" fill="#F4EEE9"/>
<path d="M74.0108 52.4103C65.5128 52.4103 59.1705 50.1641 54.984 45.6718C50.7975 41.1171 48.7042 34.753 48.7042 26.5795C48.7042 17.7821 50.7975 11.1684 54.984 6.73846C59.233 2.24615 65.2003 0 72.886 0C80.0094 0 85.6018 1.90299 89.6634 5.70897C93.7874 9.51495 95.8494 15.1303 95.8494 22.5551V27.609H65.2941C65.419 31.6021 65.9502 34.8778 66.8874 37.4359C67.8872 39.994 69.2931 41.897 71.1052 43.1449C72.9173 44.3303 75.1355 44.9231 77.7599 44.9231C79.9469 44.9231 81.8215 44.5799 83.3836 43.8936C85.0082 43.1449 86.3829 42.1778 87.5076 40.9923C88.6949 39.7444 89.6322 38.3406 90.3195 36.7808C91.3817 37.1551 92.194 37.7479 92.7564 38.559C93.3813 39.3077 93.6937 40.2748 93.6937 41.4603C93.6937 43.2697 93.0064 45.0167 91.6317 46.7013C90.3195 48.3859 88.2262 49.7585 85.3519 50.8192C82.4776 51.8799 78.6972 52.4103 74.0108 52.4103ZM79.5407 21.2449C79.5407 18.0628 79.3221 15.3799 78.8846 13.1962C78.4473 11.0124 77.7599 9.35897 76.8226 8.2359C75.9478 7.05043 74.7606 6.45769 73.261 6.45769C71.7613 6.45769 70.4179 7.01923 69.2307 8.14231C68.0434 9.26538 67.1374 10.9188 66.5125 13.1026C65.8877 15.2863 65.544 18.0004 65.4815 21.2449H79.5407Z" fill="#F4EEE9"/>
<path d="M95.4687 51.4744V46.1397H95.7498C97.187 46.1397 98.4055 45.9838 99.4052 45.6718C100.405 45.3598 101.186 44.7671 101.748 43.8936C102.311 42.9577 102.592 41.585 102.592 39.7756V12.2603C102.592 10.5756 102.311 9.29658 101.748 8.42308C101.249 7.54957 100.499 6.98803 99.499 6.73846C98.5617 6.4265 97.4057 6.27051 96.031 6.27051H95.7498V1.31026H117.401L118.62 7.58077H119.088C120.088 5.77137 121.244 4.33632 122.556 3.27564C123.931 2.15256 125.555 1.34145 127.43 0.842308C129.305 0.280769 131.492 0 133.991 0C136.365 0 138.427 0.280769 140.177 0.842308C141.989 1.34145 143.551 2.15256 144.863 3.27564C146.176 4.39872 147.175 5.83376 147.863 7.58077H148.519C149.456 5.77137 150.612 4.33632 151.987 3.27564C153.424 2.15256 155.08 1.34145 156.954 0.842308C158.891 0.280769 161.047 0 163.422 0C168.42 0 172.294 1.43504 175.044 4.30513C177.856 7.11282 179.262 11.6675 179.262 17.9692V39.4949C179.262 41.4291 179.449 42.8641 179.824 43.8C180.261 44.7359 180.917 45.3598 181.792 45.6718C182.667 45.9838 183.792 46.1397 185.166 46.1397H185.541V51.4744H162.859V21.3385C162.859 17.2829 162.359 14.1632 161.36 11.9795C160.422 9.79573 158.735 8.70385 156.298 8.70385C154.611 8.70385 153.205 9.32778 152.08 10.5756C151.018 11.7611 150.237 13.3521 149.737 15.3487C149.3 17.2829 149.081 19.4667 149.081 21.9V39.4949C149.081 41.3667 149.269 42.8017 149.644 43.8C150.018 44.7359 150.643 45.3598 151.518 45.6718C152.393 45.9838 153.518 46.1397 154.892 46.1397H155.267V51.4744H132.679V21.3385C132.679 17.2829 132.21 14.1632 131.273 11.9795C130.336 9.79573 128.648 8.70385 126.212 8.70385C124.399 8.70385 122.962 9.39017 121.9 10.7628C120.9 12.0731 120.15 13.8201 119.651 16.0038C119.213 18.1252 118.994 20.4338 118.994 22.9295V40.0564C118.994 41.8034 119.244 43.1137 119.744 43.9872C120.244 44.7983 120.963 45.3598 121.9 45.6718C122.837 45.9838 123.993 46.1397 125.368 46.1397H125.649V51.4744H95.4687Z" fill="#F4EEE9"/>
<path d="M223.194 52.4103C218.257 52.4103 214.352 51.9111 211.478 50.9128C208.603 49.9145 206.541 48.5731 205.292 46.8885C204.042 45.2038 203.417 43.3632 203.417 41.3667C203.417 39.4325 203.886 37.935 204.823 36.8744C205.76 35.8137 206.948 35.0962 208.385 34.7218C209.822 34.285 211.29 34.0667 212.79 34.0667C212.79 36.812 213.227 39.0893 214.102 40.8987C214.977 42.7081 216.195 44.0496 217.758 44.9231C219.382 45.7966 221.225 46.2333 223.287 46.2333C226.412 46.2333 228.63 45.6718 229.942 44.5487C231.317 43.4256 232.004 42.0842 232.004 40.5244C232.004 39.2765 231.598 38.1846 230.786 37.2487C230.036 36.3128 228.817 35.4393 227.13 34.6282C225.506 33.8171 223.319 33.006 220.569 32.1949C216.945 31.0718 213.915 29.8239 211.478 28.4513C209.103 27.0162 207.291 25.2692 206.042 23.2103C204.792 21.1513 204.167 18.6244 204.167 15.6295C204.167 10.3261 206.104 6.42649 209.978 3.93077C213.852 1.37265 218.976 0.0935885 225.349 0.0935885C229.474 0.0935885 232.785 0.530341 235.285 1.40384C237.847 2.27735 239.69 3.40043 240.815 4.77308C241.939 6.14573 242.502 7.54957 242.502 8.98461C242.502 11.1684 241.721 12.8218 240.159 13.9449C238.596 15.0679 236.066 15.6295 232.567 15.6295C232.567 12.5098 231.754 10.1389 230.13 8.51667C228.568 6.83205 226.474 5.98974 223.85 5.98974C222.538 5.98974 221.35 6.20812 220.288 6.64487C219.226 7.01923 218.351 7.58077 217.664 8.32949C217.039 9.0782 216.727 10.0141 216.727 11.1372C216.727 12.385 217.07 13.4769 217.758 14.4128C218.445 15.2863 219.663 16.1286 221.413 16.9397C223.163 17.7509 225.599 18.6556 228.724 19.6538C231.785 20.6521 234.504 21.8064 236.878 23.1167C239.252 24.4269 241.096 26.0803 242.408 28.0769C243.72 30.0735 244.376 32.5692 244.376 35.5641C244.376 40.6803 242.564 44.7671 238.94 47.8244C235.378 50.8816 230.13 52.4103 223.194 52.4103Z" fill="#F4EEE9"/>
<path d="M271.004 52.4103C263.193 52.4103 257.038 50.2577 252.539 45.9526C248.103 41.585 245.885 34.9714 245.885 26.1115C245.885 17.3141 248.009 10.7628 252.258 6.45769C256.57 2.15256 262.912 0 271.285 0C279.096 0 285.251 2.15256 289.75 6.45769C294.248 10.7628 296.498 17.3141 296.498 26.1115C296.498 34.9714 294.342 41.585 290.031 45.9526C285.719 50.2577 279.377 52.4103 271.004 52.4103ZM271.191 46.1397C273.316 46.1397 275.003 45.391 276.253 43.8936C277.502 42.3338 278.408 40.0876 278.971 37.1551C279.533 34.1603 279.814 30.4791 279.814 26.1115C279.814 21.744 279.502 18.094 278.877 15.1615C278.315 12.2291 277.409 10.0453 276.159 8.61025C274.909 7.11282 273.222 6.3641 271.098 6.3641C269.036 6.3641 267.38 7.11282 266.13 8.61025C264.88 10.0453 263.974 12.2291 263.412 15.1615C262.85 18.094 262.568 21.744 262.568 26.1115C262.568 30.4791 262.85 34.1603 263.412 37.1551C263.974 40.0876 264.88 42.3338 266.13 43.8936C267.442 45.391 269.129 46.1397 271.191 46.1397Z" fill="#F4EEE9"/>
<path d="M296.585 51.4744V46.1397H296.866C298.303 46.1397 299.522 45.9838 300.522 45.6718C301.521 45.3598 302.302 44.7671 302.865 43.8936C303.427 42.9577 303.708 41.585 303.708 39.7756V12.2603C303.708 10.5756 303.427 9.29658 302.865 8.42308C302.365 7.54957 301.615 6.98803 300.615 6.73846C299.678 6.4265 298.522 6.27051 297.147 6.27051H296.866V1.31026H318.517L319.736 7.58077H320.205C321.204 5.77137 322.36 4.33632 323.672 3.27564C325.047 2.15256 326.672 1.34145 328.546 0.842308C330.421 0.280769 332.608 0 335.107 0C337.482 0 339.544 0.280769 341.293 0.842308C343.105 1.34145 344.668 2.15256 345.98 3.27564C347.292 4.39872 348.292 5.83376 348.979 7.58077H349.635C350.572 5.77137 351.728 4.33632 353.103 3.27564C354.54 2.15256 356.196 1.34145 358.071 0.842308C360.008 0.280769 362.163 0 364.538 0C369.537 0 373.411 1.43504 376.16 4.30513C378.972 7.11282 380.378 11.6675 380.378 17.9692V39.4949C380.378 41.4291 380.565 42.8641 380.94 43.8C381.378 44.7359 382.034 45.3598 382.909 45.6718C383.783 45.9838 384.908 46.1397 386.283 46.1397H386.658V51.4744H363.976V21.3385C363.976 17.2829 363.476 14.1632 362.476 11.9795C361.539 9.79573 359.852 8.70385 357.415 8.70385C355.728 8.70385 354.322 9.32778 353.197 10.5756C352.135 11.7611 351.354 13.3521 350.854 15.3487C350.416 17.2829 350.198 19.4667 350.198 21.9V39.4949C350.198 41.3667 350.385 42.8017 350.76 43.8C351.135 44.7359 351.76 45.3598 352.634 45.6718C353.509 45.9838 354.634 46.1397 356.009 46.1397H356.384V51.4744H333.795V21.3385C333.795 17.2829 333.326 14.1632 332.389 11.9795C331.452 9.79573 329.765 8.70385 327.328 8.70385C325.516 8.70385 324.079 9.39017 323.016 10.7628C322.017 12.0731 321.267 13.8201 320.767 16.0038C320.33 18.1252 320.111 20.4338 320.111 22.9295V40.0564C320.111 41.8034 320.361 43.1137 320.861 43.9872C321.361 44.7983 322.079 45.3598 323.016 45.6718C323.954 45.9838 325.11 46.1397 326.484 46.1397H326.766V51.4744H296.585Z" fill="#F4EEE9"/>
<path d="M412.522 52.4103C404.712 52.4103 398.557 50.2577 394.058 45.9526C389.621 41.585 387.403 34.9714 387.403 26.1115C387.403 17.3141 389.528 10.7628 393.777 6.45769C398.088 2.15256 404.431 0 412.804 0C420.614 0 426.769 2.15256 431.268 6.45769C435.767 10.7628 438.016 17.3141 438.016 26.1115C438.016 34.9714 435.861 41.585 431.549 45.9526C427.238 50.2577 420.895 52.4103 412.522 52.4103ZM412.71 46.1397C414.834 46.1397 416.521 45.391 417.771 43.8936C419.021 42.3338 419.927 40.0876 420.489 37.1551C421.052 34.1603 421.333 30.4791 421.333 26.1115C421.333 21.744 421.02 18.094 420.396 15.1615C419.833 12.2291 418.927 10.0453 417.677 8.61025C416.428 7.11282 414.741 6.3641 412.616 6.3641C410.554 6.3641 408.898 7.11282 407.648 8.61025C406.399 10.0453 405.493 12.2291 404.93 15.1615C404.368 18.094 404.087 21.744 404.087 26.1115C404.087 30.4791 404.368 34.1603 404.93 37.1551C405.493 40.0876 406.399 42.3338 407.648 43.8936C408.961 45.391 410.648 46.1397 412.71 46.1397Z" fill="#F4EEE9"/>
<path d="M458.818 52.4103C453.881 52.4103 449.976 51.9111 447.101 50.9128C444.227 49.9145 442.165 48.5731 440.915 46.8885C439.666 45.2038 439.041 43.3632 439.041 41.3667C439.041 39.4325 439.509 37.935 440.447 36.8744C441.384 35.8137 442.571 35.0962 444.008 34.7218C445.446 34.285 446.914 34.0667 448.414 34.0667C448.414 36.812 448.851 39.0893 449.726 40.8987C450.601 42.7081 451.819 44.0496 453.381 44.9231C455.006 45.7966 456.849 46.2333 458.911 46.2333C462.035 46.2333 464.254 45.6718 465.566 44.5487C466.941 43.4256 467.628 42.0842 467.628 40.5244C467.628 39.2765 467.222 38.1846 466.409 37.2487C465.66 36.3128 464.441 35.4393 462.754 34.6282C461.129 33.8171 458.942 33.006 456.193 32.1949C452.569 31.0718 449.538 29.8239 447.101 28.4513C444.727 27.0162 442.915 25.2692 441.665 23.2103C440.415 21.1513 439.791 18.6244 439.791 15.6295C439.791 10.3261 441.728 6.42649 445.602 3.93077C449.476 1.37265 454.6 0.0935885 460.973 0.0935885C465.097 0.0935885 468.409 0.530341 470.908 1.40384C473.47 2.27735 475.314 3.40043 476.438 4.77308C477.563 6.14573 478.125 7.54957 478.125 8.98461C478.125 11.1684 477.344 12.8218 475.782 13.9449C474.22 15.0679 471.689 15.6295 468.19 15.6295C468.19 12.5098 467.378 10.1389 465.753 8.51667C464.191 6.83205 462.098 5.98974 459.474 5.98974C458.161 5.98974 456.974 6.20812 455.912 6.64487C454.85 7.01923 453.975 7.58077 453.288 8.32949C452.663 9.0782 452.35 10.0141 452.35 11.1372C452.35 12.385 452.694 13.4769 453.381 14.4128C454.069 15.2863 455.287 16.1286 457.037 16.9397C458.786 17.7509 461.223 18.6556 464.347 19.6538C467.409 20.6521 470.127 21.8064 472.502 23.1167C474.876 24.4269 476.72 26.0803 478.032 28.0769C479.344 30.0735 480 32.5692 480 35.5641C480 40.6803 478.188 44.7671 474.564 47.8244C471.002 50.8816 465.753 52.4103 458.818 52.4103Z" fill="#F4EEE9"/>
</svg>
