<svg width="70" height="88" viewBox="0 0 70 88" fill="none" xmlns="http://www.w3.org/2000/svg">
<path d="M60.1239 41.7024C60.8792 41.1405 61.3657 40.2611 61.3657 39.2728C61.3657 37.5804 59.9378 36.2042 58.1819 36.2042H35.9944C36.4369 34.5051 36.6271 32.8128 36.5568 31.1615C36.4823 29.4094 36.1516 28.1912 35.7698 26.7791C35.5561 25.9901 35.3204 25.12 35.1096 24.0519C37.6318 23.3452 43.4219 21.2756 46.8911 16.4946C51.325 10.384 50.141 2.36173 50.0887 2.02299C50.0501 1.77724 49.9095 1.55805 49.6986 1.41591C49.4877 1.27377 49.2259 1.22196 48.9723 1.27111C48.6249 1.34019 40.3994 3.02062 35.9655 9.13128C33.9063 11.9701 33.0587 15.2194 32.7472 17.9213H32.6783C32.6755 18.1512 32.6755 18.3823 32.6783 18.6134C32.6521 18.9176 32.6328 19.2125 32.6177 19.4982C31.1567 17.7712 28.9721 15.7892 26.075 14.7504C20.3937 12.7153 14.3252 15.1596 14.0688 15.2645C13.8318 15.3615 13.6471 15.5488 13.5575 15.7813C13.4679 16.0137 13.4817 16.2715 13.5947 16.4946C13.7174 16.7351 16.6572 22.406 22.3385 24.4411C23.9979 25.0349 25.6904 25.2475 27.2617 25.2475C29.7853 25.2475 31.9933 24.7002 33.2503 24.3096C33.4749 25.468 33.7258 26.3966 33.9532 27.2361C34.3226 28.6004 34.6148 29.6777 34.6809 31.2359C34.7498 32.8553 34.539 34.5251 34.0524 36.2042H11.8167C10.0608 36.2042 8.63291 37.5804 8.63291 39.2728C8.63291 40.2611 9.12082 41.1405 9.87474 41.7024C4.20314 47.2246 1.09375 54.3156 1.09375 61.8132C1.09375 67.2211 2.74354 72.5214 5.86534 77.1403C8.88652 81.6117 13.1964 85.3312 18.3277 87.8977L18.5303 88H51.4697L51.6723 87.8977C56.8036 85.3326 61.1135 81.6117 64.1347 77.1403C67.2565 72.5214 68.9062 67.2211 68.9062 61.8132C68.9062 54.3156 65.7969 47.2246 60.1239 41.7024ZM22.9932 22.7461C19.2801 21.4164 16.824 18.1671 15.8096 16.5889C17.6482 16.0323 21.71 15.1171 25.4217 16.4468C29.1334 17.7765 31.5895 21.0245 32.6052 22.604C30.7666 23.1606 26.7049 24.0745 22.9932 22.7461ZM34.5596 18.8207C34.7774 16.2223 35.4982 12.9345 37.505 10.1688C40.6365 5.85411 46.082 3.93722 48.3327 3.30225C48.4857 5.55788 48.4857 11.1451 45.3543 15.4598C42.3497 19.6018 37.2128 21.5319 34.8146 22.2426C34.6644 21.1069 34.5789 19.9618 34.5596 18.8207ZM11.8167 38.0135H58.1819C58.9027 38.0135 59.4885 38.578 59.4885 39.2728C59.4885 39.9675 58.9027 40.5321 58.1819 40.5321H11.8167C11.0959 40.5321 10.5101 39.9675 10.5101 39.2728C10.5101 38.578 11.0959 38.0135 11.8167 38.0135ZM51.0094 86.1894H18.9893C9.10153 81.1614 2.96958 71.8413 2.96958 61.8132C2.96958 54.5109 6.12997 47.6099 11.876 42.3414H58.1213C63.8687 47.6085 67.0277 54.5096 67.0277 61.8132C67.0277 71.8413 60.8957 81.1614 51.008 86.1894H51.0094Z" fill="#54160A" stroke="#54160A"/>
</svg>
