<svg width="113" height="99" viewBox="0 0 113 99" fill="none" xmlns="http://www.w3.org/2000/svg">
<g clip-path="url(#clip0_157_18)">
<path d="M74.7375 87.9804V83.5902C74.7375 82.9078 74.4952 82.2806 74.093 81.7916C74.4952 81.3027 74.7375 80.6755 74.7375 79.993V75.6028C74.7375 74.9204 74.4952 74.2932 74.093 73.8042C74.4952 73.3153 74.7375 72.6881 74.7375 72.0057V67.6154C74.7375 66.933 74.4952 66.3058 74.093 65.8169C74.4952 65.3279 74.7375 64.7007 74.7375 64.0183V59.6281C74.7375 58.0679 73.476 56.7997 71.9239 56.7997H58.8272C59.0179 54.9061 58.9303 53.0695 58.5659 51.3245C58.4198 50.6265 58.2376 49.9959 58.0451 49.3963C59.8756 49.0784 62.6685 48.2664 64.7826 46.1914C68.141 42.8965 68.373 37.8066 68.3816 37.5924C68.3954 37.2364 68.263 36.8909 68.0155 36.6369C67.768 36.3829 67.4346 36.2395 67.0737 36.2464C66.8588 36.2499 61.7937 36.3605 58.4353 39.657C57.5553 40.5209 56.8919 41.5074 56.3883 42.4974C56.3711 42.0413 56.3677 41.5817 56.3814 41.1256C57.7461 40.1563 60.7625 37.6736 61.706 34.1058C62.9229 29.5065 60.1833 25.0886 60.0664 24.902C59.6934 24.3094 58.92 24.1246 58.3201 24.4822C58.1242 24.598 53.5266 27.3883 52.32 31.9513C51.2527 35.989 53.2327 39.8868 53.8102 40.9027C53.7981 41.2396 53.7947 41.5783 53.7964 41.9169C53.2155 41.2932 52.5469 40.7075 51.7752 40.2134C47.7654 37.6442 42.7175 38.5875 42.5043 38.629C42.1571 38.6964 41.8529 38.9054 41.6622 39.2043C41.4714 39.505 41.4129 39.8695 41.4989 40.2151C41.5522 40.4259 42.8309 45.426 46.839 47.9969C49.1215 49.4603 51.7425 49.7834 53.6142 49.7834C54.3567 49.7834 54.9806 49.7315 55.4206 49.6814C55.6613 50.3794 55.8778 51.0774 56.0428 51.8601C56.3711 53.422 56.4313 55.0806 56.2319 56.8015H41.5848C40.0328 56.8015 38.7712 58.0696 38.7712 59.6298V64.02C38.7712 64.7025 39.0136 65.3296 39.4158 65.8186C39.0136 66.3075 38.7712 66.9347 38.7712 67.6172V72.0074C38.7712 72.6898 39.0136 73.317 39.4158 73.806C39.0136 74.2949 38.7712 74.9221 38.7712 75.6046V79.9948C38.7712 80.6772 39.0136 81.3044 39.4158 81.7934C39.0136 82.2823 38.7712 82.9095 38.7712 83.5919V87.9822C38.7712 88.7182 39.0548 89.3868 39.5137 89.8896C39.1597 90.363 38.9483 90.947 38.9483 91.5828V95.973C38.9483 97.5331 40.2098 98.8013 41.7618 98.8013H72.101C73.653 98.8013 74.9145 97.5331 74.9145 95.973V91.5828C74.9145 90.8468 74.6309 90.1781 74.172 89.6754C74.5261 89.2019 74.7375 88.618 74.7375 87.9822V87.9804ZM60.2365 41.5109C61.8642 39.9127 64.1192 39.2683 65.5973 39.0108C65.3051 40.4898 64.609 42.7393 62.9814 44.3375C61.352 45.9374 59.0936 46.5801 57.6172 46.8393C57.9059 45.3655 58.5986 43.1194 60.2383 41.5109H60.2365ZM54.8122 32.6164C55.4224 30.3082 57.2837 28.5009 58.5092 27.5213C59.097 28.8862 59.8103 31.191 59.2156 33.4388C58.6054 35.7488 56.7406 37.5578 55.5152 38.5357C54.9256 37.176 54.2141 34.8798 54.8122 32.6147V32.6164ZM48.226 45.8095C46.2632 44.5517 45.1048 42.4387 44.5101 41.0289C46.0329 40.9736 48.4271 41.1394 50.3899 42.3972C52.3527 43.655 53.5111 45.7681 54.1058 47.1779C52.583 47.2315 50.1888 47.0673 48.226 45.8095ZM41.3493 67.6154C41.3493 67.4841 41.4542 67.3787 41.5848 67.3787H71.9239C72.0546 67.3787 72.1594 67.4841 72.1594 67.6154V72.0057C72.1594 72.137 72.0546 72.2424 71.9239 72.2424H41.5848C41.4542 72.2424 41.3493 72.137 41.3493 72.0057V67.6154ZM41.3493 75.6028C41.3493 75.4715 41.4542 75.3661 41.5848 75.3661H71.9239C72.0546 75.3661 72.1594 75.4715 72.1594 75.6028V79.993C72.1594 80.1243 72.0546 80.2297 71.9239 80.2297H41.5848C41.4542 80.2297 41.3493 80.1226 41.3493 79.993V75.6028ZM41.3493 83.5902C41.3493 83.4589 41.4542 83.3535 41.5848 83.3535H71.9239C72.0546 83.3535 72.1594 83.4589 72.1594 83.5902V87.9804C72.1594 88.1117 72.0546 88.2171 71.9239 88.2171H41.5848C41.4542 88.2171 41.3493 88.11 41.3493 87.9804V83.5902ZM41.3493 59.6298C41.3493 59.4985 41.4542 59.3931 41.5848 59.3931H71.9239C72.0546 59.3931 72.1594 59.5002 72.1594 59.6298V64.02C72.1594 64.1513 72.0546 64.2567 71.9239 64.2567H41.5848C41.4542 64.2567 41.3493 64.1513 41.3493 64.02V59.6298ZM72.3364 95.9713C72.3364 96.1026 72.2316 96.208 72.101 96.208H41.7618C41.6312 96.208 41.5264 96.1008 41.5264 95.9713V91.5811C41.5264 91.4497 41.6312 91.3443 41.7618 91.3443H72.101C72.2316 91.3443 72.3364 91.4497 72.3364 91.5811V95.9713Z" fill="#54160A" stroke="#54160A" stroke-width="0.2"/>
<path d="M113 66.9243C113 65.3642 111.738 64.096 110.186 64.096H96.4984C96.3781 62.8227 96.3592 61.539 96.4503 60.2673C96.4984 59.5831 96.5809 58.9007 96.6892 58.2234C96.88 58.2286 97.0879 58.2338 97.3097 58.2338C99.6317 58.2338 103.497 57.8312 106.687 55.5402C111.501 52.083 112.766 45.7732 112.818 45.5054C112.885 45.1564 112.808 44.7953 112.601 44.5051C112.395 44.2165 112.08 44.0248 111.73 43.9747C111.462 43.9367 105.113 43.0952 100.3 46.5525C98.6589 47.7308 97.43 49.2426 96.5225 50.7319C96.3231 50.1773 96.0687 49.6261 95.7439 49.094C93.592 45.5625 89.3107 44.372 89.1302 44.3219C88.7882 44.2304 88.4238 44.2822 88.123 44.4688C87.8205 44.6554 87.6091 44.956 87.5352 45.305C87.4957 45.4899 86.6054 49.8646 88.7555 53.3961C90.225 55.808 92.6846 57.1263 94.1575 57.7379C94.0303 58.5154 93.9341 59.2998 93.8791 60.0876C93.7845 61.4197 93.7966 62.7639 93.91 64.0995H79.849C78.297 64.0995 77.0355 65.3676 77.0355 66.9278V71.318C77.0355 72.0005 77.2778 72.6276 77.68 73.1166C77.2778 73.6056 77.0355 74.2327 77.0355 74.9152V79.3054C77.0355 79.9879 77.2778 80.615 77.68 81.104C77.2778 81.5929 77.0355 82.2201 77.0355 82.9026V87.2928C77.0355 87.9303 77.2486 88.5178 77.6044 88.9912C77.2486 89.4646 77.0355 90.052 77.0355 90.6895V95.0797C77.0355 96.6399 78.297 97.9081 79.849 97.9081H110.188C111.74 97.9081 113.002 96.6399 113.002 95.0797V90.6895C113.002 90.052 112.789 89.4646 112.433 88.9912C112.789 88.5178 113.002 87.9303 113.002 87.2928V82.9026C113.002 82.2201 112.759 81.5929 112.357 81.104C112.759 80.615 113.002 79.9879 113.002 79.3054V74.9152C113.002 74.2327 112.759 73.6056 112.357 73.1166C112.759 72.6276 113.002 72.0005 113.002 71.318V66.9278L113 66.9243ZM101.797 48.6603C104.503 46.7183 107.95 46.4402 109.882 46.4557C109.274 48.3027 107.89 51.4886 105.187 53.4306C102.55 55.3242 99.214 55.6421 97.2547 55.6352C97.4145 55.0668 97.5933 54.5036 97.7961 53.9455C97.8219 53.8729 97.8408 53.8004 97.8528 53.7261C98.6365 52.0242 99.8861 50.0321 101.796 48.6603H101.797ZM90.9521 52.0398C90.0171 50.5056 89.8641 48.6672 89.9002 47.3939C91.0483 47.9433 92.6124 48.9177 93.5422 50.4451C94.4514 51.9379 94.6198 53.714 94.5958 54.9821C94.5855 55.015 94.5752 55.0478 94.5648 55.0806C93.4219 54.5312 91.8802 53.5637 90.9521 52.0398ZM79.6101 66.9243C79.6101 66.793 79.715 66.6876 79.8456 66.6876H110.185C110.315 66.6876 110.42 66.7948 110.42 66.9243V71.3146C110.42 71.4459 110.315 71.5513 110.185 71.5513H79.8456C79.715 71.5513 79.6101 71.4459 79.6101 71.3146V66.9243ZM110.422 87.2876C110.422 87.4189 110.317 87.5243 110.186 87.5243H79.8473C79.7167 87.5243 79.6118 87.4172 79.6118 87.2876V82.8974C79.6118 82.7661 79.7167 82.6607 79.8473 82.6607H110.186C110.317 82.6607 110.422 82.7661 110.422 82.8974V87.2876ZM110.422 79.3002C110.422 79.4315 110.317 79.5369 110.186 79.5369H79.8473C79.7167 79.5369 79.6118 79.4315 79.6118 79.3002V74.91C79.6118 74.7787 79.7167 74.6733 79.8473 74.6733H110.186C110.317 74.6733 110.422 74.7787 110.422 74.91V79.3002ZM110.422 95.0746C110.422 95.2059 110.317 95.3113 110.186 95.3113H79.8473C79.7167 95.3113 79.6118 95.2059 79.6118 95.0746V90.6843C79.6118 90.553 79.7167 90.4476 79.8473 90.4476H110.186C110.317 90.4476 110.422 90.553 110.422 90.6843V95.0746Z" fill="#54160A" stroke="#54160A" stroke-width="0.2"/>
<path d="M33.3727 80.9675H20.2381C19.9116 79.0687 19.8119 77.1509 19.9408 75.2538C21.4739 74.9618 24.1654 74.1757 26.0853 72.0972C28.8559 69.0996 28.8438 64.6869 28.8421 64.5003C28.8387 64.1444 28.6891 63.8058 28.4313 63.5639C28.1718 63.322 27.8263 63.1976 27.4723 63.2201C27.2867 63.2321 22.909 63.5431 20.1384 66.5408C19.4406 67.2958 18.9181 68.1424 18.5297 68.9873C17.7855 67.7606 16.7749 66.5131 15.4205 65.5404C11.488 62.7173 6.31293 63.4032 6.09465 63.4343C5.74403 63.4827 5.4295 63.6745 5.22325 63.9647C5.017 64.2532 4.93966 64.6161 5.00669 64.9651C5.04794 65.1828 6.0809 70.3263 10.0116 73.1494C12.4798 74.9221 15.4377 75.3108 17.3524 75.3471C17.2441 77.2148 17.3335 79.0998 17.6222 80.9675H3.03186C1.47984 80.9675 0.218292 82.2357 0.218292 83.7958V88.186C0.218292 88.8685 0.460634 89.4957 0.862818 89.9846C0.460634 90.4736 0.218292 91.1007 0.218292 91.7832V96.1734C0.218292 97.7336 1.47984 99.0017 3.03186 99.0017H33.371C34.923 99.0017 36.1846 97.7336 36.1846 96.1734V91.7832C36.1846 91.1007 35.9422 90.4736 35.54 89.9846C35.9422 89.4957 36.1846 88.8685 36.1846 88.186V83.7958C36.1846 82.2357 34.923 80.9675 33.371 80.9675H33.3727ZM22.0256 68.3048C23.2167 67.0159 24.8942 66.3836 26.1042 66.0778C25.8876 67.3165 25.3823 69.0495 24.1964 70.3315C23.0586 71.5616 21.4808 72.194 20.2863 72.5136C20.2897 72.4963 20.2914 72.4773 20.2948 72.4601C20.3344 72.251 20.3206 72.0437 20.2639 71.8519C20.5372 70.715 21.0511 69.357 22.0256 68.3048ZM7.96635 65.9309C9.51321 65.9516 11.9607 66.2419 13.9201 67.6483C15.8674 69.046 16.9364 71.2835 17.4624 72.7538C15.9086 72.7296 13.4577 72.4376 11.5104 71.0398C9.56134 69.6404 8.49057 67.3995 7.96635 65.9309ZM2.7964 83.7958C2.7964 83.6645 2.90124 83.5591 3.03186 83.5591H33.371C33.5016 83.5591 33.6064 83.6662 33.6064 83.7958V88.186C33.6064 88.3173 33.5016 88.4227 33.371 88.4227H3.03186C2.90124 88.4227 2.7964 88.3173 2.7964 88.186V83.7958ZM33.6082 96.1717C33.6082 96.303 33.5033 96.4084 33.3727 96.4084H3.03186C2.90124 96.4084 2.7964 96.303 2.7964 96.1717V91.7815C2.7964 91.6502 2.90124 91.5448 3.03186 91.5448H33.371C33.5016 91.5448 33.6064 91.6502 33.6064 91.7815V96.1717H33.6082Z" fill="#54160A" stroke="#54160A" stroke-width="0.2"/>
<path d="M2.62795 40.3896C3.39966 40.8163 4.34668 41.091 5.44495 41.2068V42.6581C5.44495 42.8844 5.51714 43.078 5.65808 43.2317C5.80417 43.3907 6.00526 43.4719 6.25448 43.4719H7.16541C7.39228 43.4719 7.59166 43.3924 7.74462 43.2386C7.89587 43.0866 7.97493 42.8844 7.97493 42.6581V41.2293C9.00789 41.117 9.92398 40.8647 10.6974 40.4794C11.543 40.0596 12.2065 39.4842 12.6705 38.7724C13.1363 38.0571 13.3718 37.2053 13.3718 36.243C13.3718 35.2806 13.1586 34.472 12.741 33.8431C12.3251 33.2194 11.6805 32.6959 10.828 32.283C10.003 31.8856 8.93055 31.502 7.64494 31.1461C6.60338 30.8455 5.74917 30.5552 5.10636 30.2874C4.49277 30.0317 4.04075 29.7346 3.76575 29.408C3.49935 29.0918 3.37044 28.7014 3.37044 28.2124C3.37044 27.4505 3.64888 26.9062 4.2195 26.552C4.82277 26.1771 5.62886 25.9871 6.61541 25.9871C7.60197 25.9871 8.37024 26.1979 8.96321 26.616C9.54758 27.0272 9.87414 27.5144 9.96007 28.1053C9.96179 28.1226 9.96695 28.1398 9.97211 28.1554C10.058 28.3938 10.1921 28.5631 10.3691 28.6582C10.5255 28.7428 10.6837 28.786 10.8383 28.786H12.1102C12.4333 28.786 12.6086 28.6461 12.698 28.5286C12.8132 28.3783 12.8716 28.2159 12.8716 28.0379C12.8544 27.4176 12.6482 26.7732 12.258 26.127C11.8713 25.4843 11.2955 24.9141 10.5462 24.4286C9.84836 23.976 8.98555 23.6736 7.97665 23.5268V22.0651C7.97665 21.837 7.89759 21.6366 7.74462 21.4828C7.59337 21.3308 7.39228 21.2513 7.16713 21.2513H6.2562C6.00698 21.2513 5.80589 21.3325 5.65808 21.4915C5.51714 21.6452 5.44667 21.8387 5.44667 22.0651V23.4957C3.92215 23.6719 2.71388 24.1868 1.85452 25.0264C0.943586 25.918 0.481246 26.9978 0.481246 28.2383C0.481246 29.2007 0.684057 30.011 1.08452 30.6434C1.48327 31.2757 2.09342 31.8079 2.89779 32.2294C3.67638 32.6372 4.6698 33.0173 5.84886 33.3576C6.95572 33.6756 7.86837 33.9745 8.56102 34.2423C9.22789 34.5014 9.72633 34.7934 10.0426 35.1113C10.3382 35.4102 10.4826 35.7955 10.4826 36.2914C10.4826 37.0326 10.199 37.6079 9.61289 38.0502C9.01477 38.5029 8.0454 38.7344 6.73401 38.7344C5.87808 38.7344 5.17339 38.6152 4.64231 38.3819C4.11465 38.1504 3.70903 37.8602 3.43232 37.5163C3.15388 37.1708 2.96826 36.8183 2.88232 36.471C2.83935 36.2965 2.7517 36.1428 2.62279 36.0132C2.4767 35.8663 2.27045 35.7938 2.0092 35.7938H0.785462C0.574058 35.7938 0.383278 35.875 0.232029 36.027C0.0790619 36.1773 0 36.3622 0 36.5695C0.0343747 37.3211 0.274998 38.0398 0.714994 38.7033C1.15155 39.3633 1.79608 39.93 2.62795 40.3896Z" fill="#54160A" stroke="#54160A" stroke-width="0.2"/>
<path d="M109.679 30.8351L106.716 17.2689L93.4872 21.006L94.1489 23.5129L102.823 21.0267L95.6442 33.7533L58.1792 0.326556C57.6464 -0.148575 56.8334 -0.100198 56.3608 0.433676L13.0916 49.2737L10.2351 46.1879C9.7504 45.6644 8.934 45.635 8.41322 46.1223C7.89245 46.6095 7.86323 47.4302 8.34791 47.9537L12.1687 52.083C12.4127 52.3473 12.7547 52.4959 13.1122 52.4959H13.126C13.4886 52.4925 13.8341 52.3335 14.0747 52.0623L57.4298 3.12378L95.1252 36.7544C95.4156 37.0136 95.8075 37.1276 96.1925 37.0637C96.5758 36.9998 96.9109 36.7648 97.1034 36.4244L105.099 22.25L107.146 31.3189L109.681 30.8334L109.679 30.8351Z" fill="#54160A" stroke="#54160A" stroke-width="0.2"/>
</g>
<defs>
<clipPath id="clip0_157_18">
<rect width="113" height="99" fill="white"/>
</clipPath>
</defs>
</svg>
