<svg width="186" height="90" viewBox="0 0 186 90" fill="none" xmlns="http://www.w3.org/2000/svg">
<path d="M17.1015 89.653C17.1914 75.9868 20.5606 57.1722 29.2127 51.247C39.9447 43.8968 59.769 46.5997 72.4371 55.4392C85.0289 64.2283 84.8313 75.118 93.6002 76.1109C100.145 76.851 104.566 71.2751 128.159 47.8776C145.095 31.081 146.775 30.0329 149.07 30.295C159.349 31.4487 169.596 64.1961 171.864 89.6575H185.718C184.344 79.6872 182.133 63.81 180.476 56.924C174.771 33.2231 160.539 -0.466585 146.712 0.5493C141.263 0.949218 139.008 6.50211 118.856 37.4613C101.754 63.741 97.7959 68.3148 93.416 67.8183C83.3937 66.6829 86.4036 40.7158 69.8137 28.9435C54.2839 17.9297 26.5533 22.8712 12.6857 36.7626C1.78296 47.6845 -1.17295 71.459 0.457743 89.653H17.1015Z" fill="#E4D6C5"/>
</svg>
